<svg xmlns="http://www.w3.org/2000/svg" width="38" height="50" viewBox="0 0 38 50">
  <g fill="currentColor">
    <path d="M16.4 11s-2.4-3.7.2-4.6c0 0 .1-1-1.8-1-1.9 0-1.7 1.7-1.8 1.8 0-.1-.1 1.9 3.4 3.8zm2.5-.1s2.9-1.7 2.5-4.8c0 0-.1-2-2.1-2 0 0-2.1-.2-2.1 1.9-.1.1 3.9-.9 1.7 4.9zm1.8-9.2L20.1.1h-2l-.5 1.6 1.5 1.4 1.6-1.4zm-8.2 9.2s-1-2.6.1-3c0 0-.3-.9-1.1-.9-.7 0-1.2.4-1.2 1.3s1.4 2.3 2.2 2.6zM6 23.6c-.7 2.2 2 2.7 2 2.7-.7-.6.2-.8.2-.8.8-.2 2.5 0 2.5 0 4.4.6 3.9 3.9 3.9 3.9-1.8-.6-2.8.3-2.8.3-1.3 1.1-1.9.2-1.9.2-.8 3.2 1 4.6 1 4.6.7-3.9 4.6-4.2 4.6-4.2 0-4.1 4.8-2.9 4.8-2.9-1-2.2-3.2-2.4-3.2-2.4 3.5-.5 3.1-3.4 3.1-3.4-2.2 1.4-5.2.7-5.2.7 3-1.1 2.8-3.1 2.8-3.1-1.8 1.4-4.1 1-4.1 1 1.3-.3.7-2.4.7-2.4-.2 1.1-2.8 1-2.8 1-2-.1-1.9 1.4-1.9 1.4.1.2 1.2.6 1.9.9.7.3.8.6.8.6-.1.9-1 .8-1 .8-.8 0-.8-.9-.8-.9-1.4-.4-4.5.8-4.5.8-1 .5-.1 1.2-.1 1.2zM22.1 11s3.6-1.1 3.4-4.4c0 0-.2-1.4-1.7-1.4 0 0-1.4.1-1.8 1.1 0 .1 2.2 1.5.1 4.7zm5.9.1c-1.9 1.6-7.1.9-7.1.9-3.2-.4-3.8.2-5 1.3-1.3 1.2-1 3.7-1 3.7 2.9-4.2 5.2-2.3 5.2-2.3-2.6 1.4-2 4.1-2 4.1 2.4-3.5 5.7-1.9 5.7-1.9 1.9.9 4.4.7 4.4.7 3.8-.2 4.7-3.5 4.7-3.5-3.1 1.6-7.9.3-7.9.3 3.2-1.5 3-3.3 3-3.3zM18.6 36c1.3 1.9 2.2 5.3 2.2 5.3 1.7-2.2-.1-5-.1-5-2.9-3.4-2-5.2-2-5.2-2 2.5-.1 4.9-.1 4.9z"/>
    <path d="M25.6 18.4s-4.9-1.3-4.9 2.8c0 0 2.9-1.9 5.4 0 .3-.1 3.1 2.2 6.3-.9 0 0 1.5-2 3.5-1.8 0 0-1.5-2.2-4.4-.5-3 1.6-2 1.9-5.9.4z"/>
    <path d="M29.2 23.4s-6.1-3.4-8 1.6c0 0 3.8-2.4 7.5.5 0 0 3.6 2.2 6.2.1 0 0 2.3-1.8 2.7-2.9-.1 0-3.4 2.7-8.4.7zM26 10.8s1.9-.7 2.2-2.6c0 0 .1-1.1-1.1-1.2 0 0-.9-.1-1.2.7 0 0 1.2 1.3.1 3.1zm-9.9 1.4s-3.4-1.8-4.9 1.4c0 0-1.2 1.7 1.7 4.4 0-.1-1.8-4.3 3.2-5.8zm12.1 20.9s-2.4-5.3-7.6-4c0 0 3.1 1 4.9 4 0 0 2 5.4 7.6 2.7 0 .1-3.6.3-4.9-2.7z"/>
    <path d="M32.2 28.3c-2.5 1.7-4.5-1.1-4.7-1.3-.6-.7-3.6-3.3-6.3.1 0 0 3.1-.9 5.5 2s5 2.5 6.8 1.1c1.7-1.5 3.6-1.9 3.6-1.9s-2.5-1.7-4.9 0zM28.4 39s-3.3-.5-4.2-4.1c0 0-.9-3.3-4.6-4.5-.4-.1 1.5 1.5 2.5 4.9.1 0 2.2 5.3 6.3 3.7zM11.9 28.6c-.8-2.8-5.5-1-5.5-1-4.6 1.6-4.9-1.5-4.9-1.5C-.6 28 .4 29 1.2 29.7c.8.7 2.6.7 5.9-.6 3.4-1.3 4.8-.5 4.8-.5zm4.9 8.2c-1.7-3 0-5 0-5-2.8.8-1.9 3.9-1.9 3.9 1 2 .5 5.1.5 5.1 2.5-.4 1.4-4 1.4-4z"/>
    <path d="M13.4 35.7c-1.2-2.3 1.8-4.4 1.8-4.4-4.5 1.6-3 4.2-3 4.2.6 1.9-.2 3.5-.2 3.5 2.3-1.3 1.4-3.3 1.4-3.3zm-4.5 9.8l3.5 3.7H10l-2.3-2.5-.1.1-.3.3v2.1H5.5v-7.5h1.8v3.1c.9-1 1.9-2.1 2.8-3.1h2.3l-3.5 3.8zm9.3 3.7l-3-4.2v4.2h-1.9v-7.4h1.8l3 4.2v-4.2H20v7.4h-1.8zm9.7-7.4l-3.5 8.1-3.4-8.1h1.9l1.5 3.7 1.5-3.7h2zm5.8 3.7c.9.4 1 1.1 1 1.4v.1c0 2.1-2.4 2.2-2.9 2.2H29v-7.5h2.9c.2 0 2.8.1 2.8 2.2-.2.8-.6 1.3-1 1.6zm-3-.8h1s1 0 1-.6c0-.5-.5-.7-1-.7h-1v1.3zm2.1 2.2c0-.6-.8-.6-1.1-.6h-1.1v1.3h1c.5 0 1.2-.1 1.2-.7z"/>
  </g>
</svg>
