<svg xmlns="http://www.w3.org/2000/svg" viewBox="0 0 1534 357">
  <path fill="currentColor" d="M179 0c9.06 1 18.13 1.88 27.16 3 20 2.54 39.62 6.72 58.57 13.92 18.64 7.08 29.78 20.58 35.19 39.32 7 24.37 8.61 49.43 9.11 74.59.55 27.83-.06 55.62-6.12 83a174.53 174.53 0 0 1-5.56 18.62c-5.05 14.76-15.2 24.66-29.49 30.64-19 8-39 12.11-59.29 15-1.78.25-3.56.55-6.35 1 17 28.74 42.3 46.12 72.77 59.53-5 3.55-8.9 7.17-13.49 9.4-7.26 3.52-15 6.11-22.5 9.1h-8a14 14 0 0 0-2.13-1.08c-42.92-13.35-77.71-38.51-106.26-72.85a10.08 10.08 0 0 0-6.14-3.06c-25.68-2.81-51-6.81-75.1-16.9-13.25-5.56-23.56-14.58-28.18-28-4.56-13.25-7.35-27.17-10.06-41C1.31 184.9 1 175.39 0 166v-54c.33-2.09.82-4.16 1-6.26 1.34-18.8 3.87-37.33 10.1-55.27C16.53 34.83 26.81 24.2 42 18 61.92 9.88 82.7 5.61 103.88 3c8.7-1.09 17.41-2 26.12-3zm-24.78 239.48c3.16 0 6.33.09 9.48 0 21-.72 41.69-3.47 62-9.5 17.92-5.33 28.37-16.57 32.49-34.79C263 174 263.5 152.61 263 131.1c-.37-17.51-1.63-34.94-7-51.78-3.87-12.14-11.56-20.81-23.62-25.32-3.89-1.46-7.8-2.94-11.81-4-39-10.38-78.32-10.52-117.81-3.4-5.87 1.06-11.59 3-17.41 4.34C64.48 55.81 53.66 69.61 50 90.11c-6 33.81-5.59 67.59.12 101.38 3.56 21.07 15.55 34 36.41 39.58 22.28 5.93 44.84 8.23 67.69 8.41zM1534 95c-3.88 10.22-10.16 17.81-21.48 20.18-14.66 3.07-28.59-5-32.79-19.26a27.66 27.66 0 0 1 16.82-33.73 28 28 0 0 1 35.35 14.37c.69 1.48 1.4 3 2.1 4.45zm-5-7c0-13.34-9.75-23.27-22.73-23.2-12.63.11-22.27 10.13-22.27 23.2 0 13.43 9.53 23.39 22.49 23.46S1529 101.48 1529 88zm-109 57.75h43.52c0 7.86.59 15.64-.12 23.31-1.74 18.86-3.67 37.73-6.28 56.49-3.89 27.93-20.53 44.66-47.53 51.32-11 2.7-22 5-33.17 6.92-3.72.65-6.16 1.83-8.48 4.93-22.66 30.18-51.43 52.23-87.11 65.13a29.08 29.08 0 0 1-21.35-.39c-8.74-3.38-17-7.48-23.31-15.54 26.14-11.52 47.22-28.22 61.7-53.08-9.8-2-19-3.7-28.2-5.76-4.53-1-8.94-2.57-13.36-4-21.34-6.95-34.13-21.47-39-43.39-6.3-28.42-7.66-57.27-8.66-86.44h43.78c.19 4.17.22 8.29.59 12.38 1.51 16.72 2.65 33.49 4.87 50.12 1.68 12.56 9.73 20.67 21.28 25.66 20.66 8.93 42.42 11.34 64.52 10.37 11.89-.52 23.77-2.7 35.52-4.85 21.3-3.9 34.05-16.72 36.62-38.37 1.94-16.32 2.83-32.77 4.14-49.16.15-1.81.03-3.6.03-5.65zm-880 .51h43c0 8.19.26 16.16-.05 24.1-.82 20.81-2.86 41.43-7.6 61.83-5.12 22.06-18.28 35.8-39.45 43-23.44 8-47.62 11-72.16 11.68-28.42.74-56.59-1.36-83.91-10-11.19-3.52-21.5-8.51-29.77-17.45-7.25-7.84-10.52-17.24-13-27.11-5.36-21.26-6.78-43-8-64.83-.41-7.13-.64-14.27-1-21.73h43.74c.73 13.41 1.26 26.55 2.23 39.65.51 7 1.67 13.86 2.74 20.76 2.3 14.85 11.39 23.78 25.05 29 19.8 7.6 40.37 9.66 61.32 9.09 15.71-.42 31.09-2.74 46-8.18 12.57-4.6 20.35-13 24-25.9 5.48-19.46 6.61-39.32 6.37-59.35v-4c-.01-.04.18-.17.49-.56zm448.54 134.93h-43.38c0-9.56-.39-18.86.08-28.11 1.06-20.78 3-41.44 8.56-61.67 5.14-18.7 16.61-30.82 34.6-37.66 21.75-8.27 44.33-11.64 67.36-12.78 29.58-1.46 58.93.06 87.62 8.07 13.07 3.65 25.39 8.73 34.92 19.22 8 8.81 11.75 19.5 13.46 30.64 3 19.87 5 39.91 7.16 59.9.79 7.43.74 14.94 1.09 22.81h-43.85c-.38-8.18-.5-16.46-1.22-24.69-1.09-12.42-2.16-24.87-4.06-37.17s-9.17-20.65-20.54-25.76c-16.07-7.23-33.07-10-50.44-10.81a177.35 177.35 0 0 0-54.38 5.75c-18.71 5-28.92 16.68-32.58 35.44a251.16 251.16 0 0 0-4.39 52.14c.01 1.49-.01 2.91-.01 4.68zm-58.76.57H886c-.67-12.8-1-25.42-2.08-38a245.33 245.33 0 0 0-3.82-26.11c-2.08-10.68-8.56-18.05-18.35-22.83-16.69-8.13-34.55-10.82-52.75-11.66a174.43 174.43 0 0 0-53.39 5.68c-18.35 4.87-29 16-32.71 34.71a254.12 254.12 0 0 0-4.56 57.51H675c0-9.85-.34-19.48.07-29.08.85-19.64 3-39.1 7.79-58.28 5-19.84 16.56-33.14 35.81-40.24 18.6-6.86 37.82-10.39 57.47-11.9 31.54-2.42 62.88-1.25 93.71 6.58a143.59 143.59 0 0 1 16.55 5.49c17.71 6.88 28.81 19.57 33.56 38 5.33 20.75 7.21 41.93 8.51 63.2.53 8.84.87 17.64 1.31 26.93zM604.3 145.78h49.17v135.09H604.3zm-.3-20.17c0-7.91-.14-15.24.12-22.55 0-1.34 1.47-3.48 2.66-3.81a80.14 80.14 0 0 1 43.86 0 5.48 5.48 0 0 1 3 4 181.64 181.64 0 0 1 0 19 5.45 5.45 0 0 1-3 4 82.86 82.86 0 0 1-46.64-.64z"/>
  <path fill="currentColor" d="M1511.56 90.29l8.58 13.49c-3.18 1.23-5.41 1.1-7.1-2.06a44.17 44.17 0 0 0-5.13-8c-1.44-1.69-3.67-2.71-5.54-4l-1.2 1.14v13.24l-5 .43V72.07c5.18 0 10.31-.27 15.4.08 4.71.32 7.62 3.13 8.1 8 .57 5.52-2.24 8.75-8.11 10.14zm-10.33-3a126.64 126.64 0 0 0 12.37-3.86c.55-.23.44-4.5-.21-4.75a114.33 114.33 0 0 0-12.17-3.48z"/>
</svg>
