<svg width="512" height="512" viewBox="0 0 512 512" xmlns="http://www.w3.org/2000/svg"><title>Logo</title><path d="M156.773 222.503h10.87c12.214 0 20.522-2.743 24.92-8.23 4.4-5.486 6.6-14.18 6.6-26.085 0-20.29-11.128-30.434-33.384-30.434h-9.007v64.75zm0 114.747h11.956c12.318 0 20.96-3.002 25.93-9.006 4.97-6.004 7.453-15.475 7.453-28.415 0-14.493-2.536-24.74-7.608-30.745-5.072-6.004-13.923-9.006-26.552-9.006h-11.18v77.17zM99.943 377V119.557h67.078c9.628 0 18.194.49 25.7 1.475 7.504.983 14.957 2.924 22.36 5.822 7.4 2.9 13.507 6.755 18.32 11.568 4.814 4.814 8.67 11.36 11.57 19.642 2.69 7.66 3.984 16.563 3.88 26.707v2.175c-.413 30.02-12.99 47.255-37.73 51.706 14.802 1.968 26.085 8.18 33.85 18.634 7.762 10.455 11.748 24.896 11.955 43.32v1.71c-.104 25.154-6.677 43.838-19.72 56.053C223.748 370.79 204.39 377 179.133 377h-79.19zm255.27 3.57c-24.43 0-42.623-6.494-54.58-19.486-11.955-12.99-18.4-33.72-19.33-62.187l48.756-7.453c.206 16.15 2.147 27.872 5.82 35.17 3.676 7.298 9.188 10.947 16.538 10.947 9.627 0 14.44-6.21 14.44-18.632 0-6.936-1.242-13.328-3.726-19.177-2.485-5.847-5.538-10.842-9.16-14.982-3.624-4.14-8.697-9.006-15.218-14.596l-22.825-19.72c-5.488-4.762-10.042-9.11-13.665-13.043-3.623-3.934-7.17-8.618-10.637-14.053-3.467-5.435-6.03-11.464-7.686-18.09-1.656-6.624-2.484-13.922-2.484-21.893 0-21.428 6.418-37.99 19.254-49.687 12.836-11.698 30.433-17.598 52.793-17.702 7.66 0 14.62.828 20.884 2.485 6.262 1.656 11.54 3.83 15.837 6.52 4.296 2.693 8.074 6.083 11.335 10.172 3.26 4.09 5.85 8.177 7.764 12.266 1.915 4.09 3.52 8.696 4.813 13.82 1.293 5.124 2.173 9.808 2.64 14.052.465 4.244.8 8.8 1.008 13.664l-49.222 6.366c-.103-4.348-.233-7.945-.388-10.79-.155-2.848-.44-5.876-.854-9.085-.414-3.21-.983-5.797-1.708-7.764-.724-1.965-1.682-3.803-2.872-5.51-1.19-1.71-2.692-2.925-4.503-3.65-1.81-.724-3.96-1.035-6.443-.93-4.97.102-8.773 2.198-11.413 6.287-2.64 4.09-3.96 8.67-3.96 13.742 0 4.864.596 9.29 1.786 13.275 1.19 3.985 3.26 7.84 6.21 11.568 2.952 3.726 5.358 6.52 7.222 8.384 1.863 1.864 4.968 4.762 9.316 8.696l21.894 19.254c6.003 5.382 11.18 10.532 15.527 15.45 4.347 4.916 8.487 10.506 12.42 16.77 3.934 6.262 6.91 13.145 8.93 20.65 2.018 7.505 3.027 15.553 3.027 24.145 0 18.633-6.21 34.083-18.633 46.35-12.422 12.266-28.725 18.4-48.91 18.4z" fill="#DC143C" fill-rule="evenodd"/></svg>
