<svg xmlns="http://www.w3.org/2000/svg" viewBox="0 0 91 83">
  <g fill="none">
    <path fill="currentColor" d="M16.718 54.62c-5.294-4.793-8.305-11.767-8.305-19.193 0-13.86 10.46-25.137 23.327-25.137 2.26 0 4.51.357 6.682 1.06a47.603 47.603 0 0 1 5.123-3.83h-.004a32.29 32.29 0 0 0-11.582-2.157c-8.355 0-16.19 3.108-22.095 8.762C3.957 19.782.694 27.31.694 35.317c0 11.024 6.295 21.117 16.43 26.36-.33-2.258-.47-4.61-.405-7.057h-.001zM59.22 17.605c-9.595 0-17.38 7.823-17.38 17.5 0 6.6 3.635 12.342 8.995 15.324-2.126 3.092-4.94 5.67-8.102 7.444-3.35 1.843-6.952 2.79-10.73 2.79-.482 0-.97-.02-1.49-.056l-.436-.033.185.398c.73 1.57 1.634 3 2.68 4.278l.08.098.125-.005c5.002-.137 9.753-1.366 14.116-3.64 4.172-2.19 7.85-5.303 10.598-9.02l.106-.14c.416.03.83.062 1.254.062 9.595 0 17.383-7.84 17.383-17.5 0-9.677-7.788-17.5-17.383-17.5h-.001zm-1.524 12.112l-.96 1.587c-.058.133-.142.184-.23.184a.423.423 0 0 1-.28-.104c-.764-.62-1.506-.95-2.297-.95-1.894 0-3.106 1.62-3.106 4.35 0 2.543 1.212 4.06 3.132 4.06.732 0 1.468-.21 2.213-.71.112-.08.224-.13.285-.13.11 0 .168.05.223.184l.65 1.553c.085.157.112.237.112.29 0 .264-.368.553-1.046.843-.802.367-1.846.578-2.918.578-3.74 0-5.887-2.562-5.887-6.68 0-4.34 2.4-6.817 6.31-6.817 1.382 0 2.694.393 3.57 1.05.197.16.31.293.31.42a.583.583 0 0 1-.084.294l.003-.002zm12.167 9.055s-.028.05-.05.13l-.762 1.757c-.104.233-.21.315-.47.315h-8.097c-.393 0-.447-.05-.447-.447v-1.68l6.144-8.398-.815.428h-4.36c-.418 0-.45-.026-.45-.444v-1.588c0-.395.057-.446.45-.446h7.97c.366 0 .42.05.42.446v1.77l-6.072 8.175.742-.417h5.402c.29 0 .425.08.425.265 0 .025 0 .08-.03.134zM48.28 18.83a15.978 15.978 0 0 1 6.284-3.196l-.012-.015a32.418 32.418 0 0 0-4.576-4.136 38.846 38.846 0 0 0-5.207 3.89 25.103 25.103 0 0 1 3.51 3.455l.001.002z"/>
    <path fill="currentColor" d="M90.423 26.15c-.258-10.133-4.114-18.084-10.825-22.374-6.693-4.29-15.47-4.414-24.67-.348-9.186 4.072-17.73 11.817-24.04 21.834-6.31 10.03-9.63 21.117-9.367 31.23.267 10.132 4.103 18.08 10.814 22.372 6.714 4.29 15.472 4.414 24.682.35 9.195-4.07 17.72-11.817 24.035-21.834 6.308-10.034 9.627-21.12 9.373-31.23M38.407 68.67C27.05 61.395 26.16 42.21 36.42 25.904c6.06-9.62 15.04-16.575 24.027-18.586 5.68-1.284 10.933-.515 15.186 2.204 11.362 7.274 12.253 26.444 1.99 42.764C67.363 68.592 49.767 75.93 38.407 68.67"/>
  </g>
</svg>
