<svg xmlns="http://www.w3.org/2000/svg" width="283" height="70" viewBox="0 0 283 70">
  <path fill="currentColor" d="M100.8.6c-3 0-5 2.1-5 5.3V25c-2.6-2.3-6.4-4.3-11.1-4.3C71.1 20.7 64 33 64 45.2s7.1 24.5 20.7 24.5c4.9 0 8.7-1.4 11.2-4.1.5 2.5 2.2 4.1 4.9 4.1 3 0 5-2.1 5-5.3V5.9c.1-3.2-1.9-5.3-5-5.3zm-15.4 60c-8.3 0-11.2-8.4-11.2-15.5s2.9-15.5 11.2-15.5c8.3 0 11.2 8.4 11.2 15.5s-2.9 15.5-11.2 15.5zm136.4-31c2.7 0 4 .7 5.4 1.3 1.1.5 2.2 1.1 3.8 1.1 2.6 0 4.3-2.3 4.3-4.4 0-4.2-5.4-7-13.5-7-15 0-21.8 12.3-21.8 24.5s6.7 24.5 21.8 24.5c8.7 0 13.2-3.6 13.2-7.2 0-2.7-1.7-4.4-4.2-4.4-1.3 0-2.2.5-3.3 1-1.4.7-2.9 1.5-5.8 1.5-9.3 0-11.7-9.8-11.7-15.5.1-5.6 2.5-15.4 11.8-15.4zM42.2 10.3c-.8-2-2.1-5.6-6.5-5.6-4.3 0-5.7 3.4-6.5 5.5-.1.1-7.2 19.3-12.8 34.3H5.6c-3.8 0-5.1 2.3-5.1 4.4 0 2.1 1.4 4.4 5.1 4.4h7.5c-2 5.3-3.3 8.9-3.3 8.9-.3.8-.7 2.1-.7 3.2 0 2.1 1.6 4.3 4.6 4.3 3.2 0 4.2-2.1 5-3.6l.2-.3 4-10.9s.2-.7.5-1.5h12.4c3.8 0 5.1-2.2 5.1-4.4 0-2-1.4-4.4-5.1-4.4h-9.2c2.4-6.5 6.7-18.3 9.1-24.7 2.6 6.9 10.8 29.4 10.8 29.4l2 5.6 4 10.9c.5 1.3 1.6 4 5.2 4 3 0 4.6-2.1 4.6-4.3 0-1.1-.4-2.4-.7-3.3-.1 0-19.4-51.9-19.4-51.9zm139.7 19.3c2.7 0 4.1.7 5.4 1.3 1.1.5 2.2 1.1 3.8 1.1 2.6 0 4.3-2.3 4.3-4.4 0-4.2-5.4-7-13.5-7-15 0-21.8 12.3-21.8 24.5s6.7 24.5 21.8 24.5c8.7 0 13.3-3.6 13.3-7.2 0-2.7-1.7-4.4-4.2-4.4-1.3 0-2.2.5-3.3 1-1.4.7-2.9 1.5-5.8 1.5-9.2 0-11.7-9.8-11.7-15.5 0-5.7 2.5-15.4 11.7-15.4zm79.3-9c-14 0-21.3 12.3-21.3 24.5s7.3 24.5 21.3 24.5c13.9 0 21.2-12.3 21.2-24.5s-7.3-24.5-21.2-24.5zm0 40c-8.3 0-11.2-8.4-11.2-15.5s2.9-15.5 11.2-15.5c8.3 0 11.2 8.4 11.2 15.5s-2.9 15.5-11.2 15.5zM154.9 44c0-11.5-7.8-23.4-20.8-23.4-14.2 0-21.7 12.3-21.7 24.5 0 11.3 5.8 24.5 22.1 24.5 8.9 0 19.5-5.7 19.5-10.6 0-3-2.1-4.6-4-4.6-1.4 0-2.6.9-3.9 2-2.2 1.8-5.4 4.2-11.4 4.2-6.9 0-11.5-4.5-12.1-11.3h26.9c3.7 0 5.4-1.7 5.4-5.3zm-32.4-2.9c.4-4 2.3-11.8 11.5-11.5 7.3 0 10.3 6.5 10.8 11.5h-22.3z"/>
</svg>
