<svg viewBox="0 0 180 48" id="logo-dunea" width="100%" height="100%"><g fill="none" fill-rule="evenodd"><path d="M20.514 4.384v29.078c-1.215-.666-2.31-.705-3.734-.705-2.6 0-4.99.705-6.503.705C3.775 33.462 0 30.675 0 25.724v-7.487c0-4.784 4.28-7.697 9.228-7.697 2.477 0 4.53 1.29 4.53 1.29s-.292-1.333-.292-2.163V.765c.713 0 7.048.04 7.048 3.62zm-7.048 14.06c0-1.79-1.804-2.994-3.69-2.994-1.595 0-2.727 1.038-2.727 3.41v6.24c0 2.33.878 3.62 3.732 3.62 1.173 0 2.684-.25 2.684-.25V18.444zM30.96 25.478c0 1.955.84 3.037 3.27 3.037 1.428 0 3.15-.417 3.15-.417V10.752s7.047 0 7.047 3.202v19.68s-1.89-1.04-4.53-1.04c-2.14 0-4.112.872-6.253.872-4.697 0-9.733-1.582-9.733-7.363v-15.35s7.05.164 7.05 3.2V25.48zm30.543-6.948c0-1.956-.8-2.995-3.188-2.995-1.468 0-3.232.375-3.232.375v17.346s-7.047 0-7.047-3.202V10.418s1.846 1 4.616 1c2.054 0 4.026-.876 6.25-.876 4.698 0 9.65 1.582 9.65 7.365v15.35s-7.05-.083-7.05-3.203V18.53zm10.113 7.114v-7.28c0-4.867 3.607-7.82 10.11-7.82 6.503 0 9.27 2.953 9.27 7.405 0 3.66-1.888 7.07-8.892 7.07-2.14 0-3.44-.667-3.44-.667v.668c0 2.33 1.635 3.37 4.194 3.37 4.363 0 6.965-1.956 7.007-4.12 1.006 1.374 1.51 2.622 1.51 3.786 0 3.038-3.4 5.407-8.73 5.407-7.17 0-11.03-2.91-11.03-7.82zm7.048-5.74c.627.166 1.51.333 2.39.333 1.51 0 2.938-.5 2.938-2.288 0-1.5-.714-2.497-2.56-2.497-2.098 0-2.768 1.246-2.768 3.536v.914zm17.123.498c-1.553-2.038-1.93-3.536-1.93-4.824 0-4.204 5.958-5.033 8.85-5.033 6.84 0 10.448 2.62 10.448 7.444v15.474c-1.174-.624-2.433-.748-3.608-.748-2.224 0-4.573.748-7.048.748-4.7 0-9.23-1.58-9.23-6.82 0-7.614 10.908-6.2 12.836-8.988 0-.998-.755-2.162-3.48-2.162-3.23 0-6.84.956-6.84 4.908zm10.446 2.247c-1.134 1.748-5.915 1.08-5.915 3.743 0 1.954 1.426 2.37 2.853 2.37 1.51 0 3.063-.456 3.063-.456V22.65zm65.857-1.257s.057-.053.103-.004c.045.042.027.086.027.086-.172.472-.452 1.386-.337 2.206.352 2.456 2.696 3.562 1.495 5.814-.868 1.64-5.506 1.815-6.564.887-.845-.737-.92-1.966.446-4.113 1.63-2.566 3.53-3.695 4.83-4.875" fill="currentColor"></path><path d="M132.027 17.315c-.768.305-3.972-.058-3.805-1.55.333-2.193 4.05-3.848 5.924-4.592 4.16-1.648 7.474-1.865 8.63-1.884 0 0 .08-.003.08.08 0 .062-.056.077-.056.077-.815.324-2.704 1.148-4.54 2.48-4.142 3.012-5.134 4.953-6.233 5.388" fill="currentColor"></path><path d="M130.663 26.922s-.04-.018-.083.035c-.03.036.005.095.005.095.968.677 4.006 3.307 3.882 6.324-.01.22-.445.32-1.233.42-.65.08-3.023.347-5.423-.744-1.703-.776-3.65-2.766-4.365-5.545-1.065-4.134-.272-7.915 2.69-8.44 3.678-.657 6.34 2.788 9.386 2.92 2.762.123 5.8-4.733 10.16-4.71.695.002 2.364.25 3.13.407.792.16 3.263.777 5.577 1.042 4.927.558 7.91-1.214 11.275-4.885 1.92-2.09 3.27-3.24 4.676-3.362 2.038-.172 4.39 1.152 6.997.718 0 0 .045-.007.07.02.033.037.023.07.023.07-.148.7-1.105 4.56-4.854 7.468-5 3.883-5.856 5.187-7.923 8.63-.72 1.203-2.157 2.71-3.63 3.485-3.16 1.663-11.508 2.934-11.436-1.416.055-3.294-1.102-4.99-3.17-6.56-1.22-.93-2.67-1.092-3.43-1.105 0 0-.08.004-.08.078 0 .058.047.075.047.075 1.733.67 4.517 3.37 4.215 6.683-.343 3.71-6.19 5.908-9.114 3.87-1.614-1.124-3.074-2.792-4.004-3.604-1.624-1.42-2.81-1.845-3.383-1.97" fill="currentColor"></path><path d="M175.383 4.674c-.875-.04-1.92-.165-2.837-.91-.732-.59-.932-1.314-2.647-1.314-2.825 0-2.734 2.72-8.005 5.135-5.02 2.296-7.676.344-12.132.646-6.218.425-14.865 8.216-15.48 10.034-.072.22.05.364.078.397.63.766 1.545.692 1.795.568.51-.254 1.968-1.602 3.044-2.136 7.637-3.81 11.13 1.15 18.803-.34 3.574-.69 5.843-4.96 8.408-6.755 3.68-2.57 7.903-.393 9.543-.266 1.68.13 3.09-.778 3.116-2.905.027-2.688-2.095-2.075-3.687-2.15" fill="currentColor"></path><path d="M82.337 47.728c-.098 0-1.02-.02-1.02-.616v-7.008h3.01c1.674 0 3.253.55 3.253 2.566v2.49c0 2.018-1.58 2.568-3.252 2.568h-1.99zm.165-6.718v5.814h1.826c1.155 0 2.067-.433 2.067-1.77v-2.287c0-1.337-.912-1.757-2.067-1.757h-1.826zm15.143 4.508c0 1.574-1.47 2.35-3.142 2.35-1.662 0-3.133-.776-3.133-2.35v-5.51s1.186 0 1.186.615v4.73c0 1.026.806 1.555 1.947 1.555 1.153 0 1.957-.53 1.957-1.554v-5.346s1.185 0 1.185.615v4.895zm3.992-5.521s1.185 0 1.185.613v7.226s-1.185 0-1.185-.615v-7.223zm9.943 5.217l.576.906s-.122-.593-.122-1.013v-5.002s1.187 0 1.187.613v7.117c-1.4 0-1.73-.733-1.73-.733l-3.414-5.425s.122.572.122 1.058v5.1s-1.187 0-1.187-.614v-7.115c.74 0 1.36 0 1.718.57l2.85 4.54zm18.942-.418l-.936-2.816c-.28-.863-.488-1.564-.685-1.866 0 0 .23-.075.438-.075.944 0 1.162.917 1.434 1.725l.913 2.75c.394 1.186.872 1.887.872 1.887s.574-.572 1.184-2.2c0 0-.39-1.597-.39-2.805 0-.776.37-1.217 1.22-1.217-.036.344-.056.69-.056 1.013 0 3.03 1.49 5.21 1.49 5.21s.477-.692.87-1.89l.903-2.748c.26-.808.498-1.726 1.435-1.726.217 0 .445.074.445.074-.197.302-.403 1.003-.685 1.866l-.935 2.816c-.762 2.274-2.034 3.147-2.034 3.147s-1.034-.84-1.74-2.425c-.642 1.66-1.718 2.425-1.718 2.425s-1.273-.873-2.023-3.147m16.666-1.746c.294.936.597 1.875.904 2.814.27.863.488 1.563.683 1.866 0 0-.228.074-.445.074-.937 0-1.197-.915-1.448-1.724l-.195-.636h-2.937l-.195.636c-.25.81-.51 1.724-1.447 1.724-.216 0-.444-.074-.444-.074.196-.303.413-1.003.685-1.866.304-.94.6-1.878.904-2.814.716-2.276 1.89-3.096 1.968-3.16.065.064 1.24.884 1.968 3.16m-2.807.28l-.357 1.196h2.392l-.36-1.195c-.358-1.186-.836-1.953-.836-1.953-.097.127-.48.767-.84 1.952m9.734-2.318v6.826s-1.185 0-1.185-.615v-6.21h-1.534c-.783 0-.892-.637-.892-1.08 0 0 .282.176 1.066.176h3.926c.783 0 1.075-.176 1.075-.176 0 .443-.12 1.08-.9 1.08h-1.556zm6.948 3.06v2.754h3.88c0 .05-.02.904-.682.904h-3.34s-1.043 0-1.043-.616v-7.008h5.066s0 .906-.683.906h-3.198v2.157h2.37c.838 0 1.076-.172 1.076-.172 0 .442-.12 1.076-.9 1.076h-2.545zm10.592.174c1.414.68 1.955 2.61 2.565 3.505 0 0-.283.063-.488.063-.348 0-.87-.096-1.175-.656-.72-1.326-1.163-2.524-2.708-2.827v3.505s-1.186-.01-1.186-.614v-7.115h2.37c1.578 0 2.708.463 2.708 1.886v.325c0 1.185-.87 1.93-2.087 1.93zm-1.805-3.235v2.414h1.27c1.067 0 1.437-.43 1.437-1.273 0-.862-.49-1.14-1.523-1.14h-1.185zm-45.742 5.458c.38-.358 1.044-.874.733-1.578-.077-.178-.28-.34-.28-.34-.022.286-.574.83-1.082 1.243 0 0-.408-.437-.875-.98-.46-.523-.93-1.11-.93-1.11 1.02-.668 1.646-1.127 1.646-1.98 0-.63-.45-1.786-1.97-1.786-1.145 0-1.975.715-1.975 1.824 0 .646.168 1.016.798 1.826-.987.597-1.447 1.198-1.447 2.19 0 1.192.847 2.126 2.39 2.126.76 0 1.614-.306 2.17-.79.51.48 1.088.923 1.755.694.28-.097.49-.267.49-.267-.286-.097-.942-.49-1.42-1.073m-2.76-5.615c.88 0 .914.815.914.93 0 .508-.4.81-1.114 1.272-.452-.543-.64-.91-.64-1.328 0-.52.327-.874.84-.874m-.147 6.047c-.828 0-1.313-.5-1.313-1.195 0-.6.305-1.036.862-1.403 0 0 .543.658.923 1.09.384.434.95 1.034.95 1.034-.376.365-.916.473-1.422.473" fill="currentColor"></path></g></svg>
