<svg xmlns="http://www.w3.org/2000/svg" width="188" height="45" viewBox="0 0 188 45">
  <path fill="currentColor" d="M.2 1h25v8.7H10.3V17H20v8.6h-9.7V35h15.3v8.7H.2V1zm68.7 0H94v8.7H79.1V17h9.7v8.6h-9.7V35h15.3v8.7H68.9V1zm92.8 0h25.1v8.7h-15V17h9.7v8.6h-9.7V35h15.4v8.7h-25.5V1zm-48.4 18.5h-4.8V9.1h4.5s3.6.2 3.6 5c0 4.9-3.3 5.4-3.3 5.4zm7.7 6.1s5.6-2 5.6-12.2C126.6 1 114 1 114 1H98.6v42.8h10V27.6h2.6l5.1 16.1h10.8L121 25.6zm18.8-1.6c0 9.1 1.8 11.9 4.7 11.9 2.6 0 3.2-3 3.2-3l1.1-4 9.4 3.2s-1.5 12.6-14 12.6C128.3 44.8 129 24 129 24v-2.6S128.4.6 144.4.6c13 0 13.8 13.4 13.8 13.4l-10 2.7-.8-4s-.8-3.3-3.3-3.3c-2.9 0-4.4 4-4.4 12V24h.1zM29.7 1h9.1l8 23.4 8-23.4h9.3v42.8h-9.3V22.7l-8 22.4-8-22.4v21.1h-9.1V1z"/>
</svg>
