<svg xmlns="http://www.w3.org/2000/svg" viewBox="0 0 235 61">
  <path fill="currentcolor" fill-rule="evenodd" d="M211.675 48.707c-4.969 0-6.27-1.21-6.27-11.348 0-10.513 1.301-11.459 6.27-11.459 5.038 0 6.343.946 6.343 11.459 0 10.139-1.305 11.348-6.343 11.348zm0-34.941c-14.454 0-22.19 5.097-22.19 23.317 0 18.3 7.553 23.772 22.19 23.772 14.786 0 22.38-5.472 22.38-23.772 0-18.22-7.674-23.317-22.38-23.317zM42.253 14.888L38.813.318H.711v38.274c.076 15.43 6.423 20.898 18.203 21.054h22.46V45.064H23.522c-4.011-.311-6.173-2.551-6.173-8.239h19.166V22.526H17.33v-7.638h24.923zm130.002 12.225c3.569 0 7.502 1.055 9.857 1.72l3.12-13.169c-3.564-1.224-9.568-1.898-14.526-1.898-13.165 0-22.558 5.18-22.558 23.317 0 18.3 9.313 23.772 22.558 23.772 4.706 0 10.878-.775 14.527-2.168l-3.121-13.179c-2.355.86-6.012 1.895-9.857 1.895-5.293 0-8.17-.94-8.17-10.044 0-9.634 2.877-10.246 8.17-10.246zM73.57 13.766c-8.873 0-18.206 2.153-24.193 4.162v41.718h15.928V28.414c1.823-.353 3.381-.606 4.767-.606 5.403 0 6.292 2.093 6.292 8.338v23.5h15.921V35.092c0-15.883-6.536-21.326-18.715-21.326zm41.3 20.021c.281-5.016 2.572-8.83 6.913-8.83 4.281 0 7.348 2.089 7.428 8.182l-14.34.648h-.001zm6.073-20.013c-12.705 0-21.429 5.188-21.429 23.325 0 18.303 10.105 23.772 22.387 23.772 5.486 0 12.18-.934 16.62-2.427l-2.77-11.69c-3.239.625-8.697 1.107-11.765 1.107-5.215 0-8.02-.792-8.184-5.459h25.862c1.658-24.218-5.125-28.628-20.721-28.628z"/>
</svg>
