<?xml version="1.0" encoding="UTF-8"?>
<svg viewBox="0 0 852 351" version="1.1" xmlns="http://www.w3.org/2000/svg" xmlns:xlink="http://www.w3.org/1999/xlink">
  <path fill="currentColor" d="M86.8,350.8 L39.4,298.8 C35.6,294.7 31.6,290.2 27.5,285.4 C23.4,280.6 19.6,276.2 16.1,272.1 L15.8,272.3 C16,277 16.1,281.4 16.1,285.7 L16.1,348.7 L0.5,348.7 L0.5,247.2 L11.1,247.2 L54.6,294.9 C56.1,296.5 57.7,298.3 59.5,300.4 C61.3,302.5 63.2,304.6 65,306.7 C66.8,308.8 68.8,311 70.6,313.1 C72.5,315.3 74.2,317.3 75.8,319.2 L76.1,319 C75.9,315.1 75.8,311.1 75.8,306.9 L75.8,247.1 L91.4,247.1 L91.4,350.8 L86.8,350.8 L86.8,350.8 Z M112,348.6 L112,247.2 L166.9,247.2 L166.9,260.4 L127.6,260.4 L127.6,291 L160.5,291 L160.5,304.2 L127.6,304.2 L127.6,335.4 L172.4,335.4 L172.4,348.6 L112,348.6 L112,348.6 Z M224.6,260.4 L224.6,348.7 L209,348.7 L209,260.4 L176.4,260.4 L176.4,247.2 L257.2,247.2 L257.2,260.4 L224.6,260.4 L224.6,260.4 Z M331.2,331.5 C329.4,335.2 326.7,338.5 323.5,341.1 C320.3,343.6 316.7,345.6 312.8,346.7 C309,347.9 305,348.5 301,348.5 L268,348.5 L268,247.2 L296.3,247.2 C299.8,247.2 303.2,247.8 306.5,248.9 C309.8,250 312.9,251.6 315.6,253.8 C318.4,256.1 320.6,258.9 322.2,262.1 C324,265.7 324.8,269.7 324.7,273.8 C324.7,277.5 323.9,281.2 322.2,284.5 C320.9,287.6 318.4,290.2 315.3,291.6 C317.8,292.3 320.1,293.4 322.2,294.9 C324.5,296.5 326.5,298.5 328.2,300.8 C330,303.2 331.4,305.8 332.4,308.6 C333.5,311.6 334,314.7 334,317.8 C334.2,322.5 333.3,327.2 331.2,331.5 L331.2,331.5 Z M304.8,263.4 C301.6,261.2 297.8,260.1 294,260.2 L283.5,260.2 L283.5,286.9 L294,286.9 C297.8,287 301.6,285.9 304.8,283.8 C307.9,281.7 309.4,278.4 309.4,273.7 C309.4,268.9 307.8,265.5 304.8,263.4 L304.8,263.4 Z M316.8,309.9 C315.7,307.7 314.1,305.8 312.2,304.3 C310.2,302.8 308,301.7 305.6,301 C303.1,300.3 300.5,299.9 297.9,299.9 L283.4,299.9 L283.4,335.5 L297.9,335.5 C300.5,335.5 303.1,335.2 305.6,334.5 C308,333.9 310.2,332.8 312.2,331.3 C314.1,329.8 315.7,327.9 316.8,325.7 C318,323.2 318.6,320.5 318.6,317.7 C318.7,315.1 318.1,312.3 316.8,309.9 L316.8,309.9 Z M351,348.6 L351,247.2 L405.9,247.2 L405.9,260.4 L366.6,260.4 L366.6,291 L399.5,291 L399.5,304.2 L366.6,304.2 L366.6,335.4 L411.4,335.4 L411.4,348.6 L351,348.6 L351,348.6 Z M492.5,348.6 L492.5,304.2 L440.5,304.2 L440.5,348.6 L425,348.6 L425,247.2 L440.6,247.2 L440.6,291 L492.6,291 L492.6,247.2 L508.2,247.2 L508.2,348.6 L492.5,348.6 L492.5,348.6 Z M528.8,348.6 L528.8,247.2 L583.7,247.2 L583.7,260.4 L544.4,260.4 L544.4,291 L577.3,291 L577.3,304.2 L544.4,304.2 L544.4,335.4 L589.2,335.4 L589.2,348.6 L528.8,348.6 L528.8,348.6 Z M602.7,348.6 L602.7,247.2 L657.6,247.2 L657.6,260.4 L618.3,260.4 L618.3,291 L651.2,291 L651.2,304.2 L618.3,304.2 L618.3,335.4 L663.1,335.4 L663.1,348.6 L602.7,348.6 L602.7,348.6 Z M738,348.6 L706,304.1 L691.7,304.1 L691.7,348.6 L676.5,348.6 L676.5,247.2 L708.6,247.2 C712.3,247.2 715.9,247.8 719.4,249 C723,250.1 726.3,251.9 729.2,254.3 C735.7,259.5 739.3,267.4 739.1,275.8 C739.1,282.6 737.4,288.1 733.9,292.4 C730.6,296.6 726.2,299.9 721.3,301.9 L756,348.8 L738,348.8 L738,348.6 Z M722.1,268.8 C721.2,266.9 719.8,265.3 718.2,264 C716.5,262.7 714.6,261.7 712.6,261.1 C710.5,260.4 708.3,260.1 706.1,260.1 L691.9,260.1 L691.9,291 L706.1,291 C708.3,291 710.5,290.7 712.6,290.1 C714.6,289.6 716.6,288.6 718.2,287.3 C719.9,286 721.2,284.3 722.1,282.4 C723.1,280.2 723.6,277.9 723.5,275.5 C723.6,273.2 723.1,270.9 722.1,268.8 L722.1,268.8 Z M0.9,182.6 L0.9,4.6 L104.7,4.6 L104.7,40 L44.2,40 L44.2,75.4 L93.6,75.4 L93.6,111.4 L44.2,111.4 L44.2,147.1 L112.6,147.1 L112.6,182.6 L0.9,182.6 Z M283,184.5 L213.8,108.6 C208.2,102.5 202.5,95.9 196.6,88.9 C190.7,81.9 185.4,75.5 180.6,69.5 L180,69.8 C180.4,76.1 180.6,82.5 180.7,89.1 C180.8,95.6 180.8,101.7 180.8,107.2 L180.8,182.5 L137.5,182.5 L137.5,4.5 L172.4,4.5 L232.7,70.9 C237,75.6 241.9,81.1 247.4,87.5 C252.9,93.9 257.7,99.7 261.8,104.9 L262.4,104.6 C261.8,94 261.6,82.9 261.6,71.4 L261.6,4.4 L304.9,4.4 L304.9,184.4 L283,184.5 Z M339.6,182.6 L339.6,4.6 L443.4,4.6 L443.4,40 L382.9,40 L382.9,75.4 L432.3,75.4 L432.3,111.4 L382.9,111.4 L382.9,147.1 L451.3,147.1 L451.3,182.6 L339.6,182.6 Z M579.9,182.6 L556.2,144.1 C554.5,141.3 552.7,138.1 550.8,134.6 C548.8,131.1 547,127.7 545.4,124.6 L544.8,124.6 C543.3,127.8 541.5,131.1 539.5,134.5 C537.5,137.9 535.5,141.1 533.6,144.1 L509.3,182.6 L464.4,182.6 L521.6,92.2 L467.2,4.6 L514.6,4.6 L536.9,40.6 C538.6,43.2 540.3,46.1 542.1,49.2 C543.9,52.4 545.4,55.4 546.7,58.4 L547.3,58.4 C548.8,55.4 550.4,52.4 552.2,49.2 C554,46 555.7,43.2 557.4,40.6 L579.7,4.6 L624.6,4.6 L570.5,91.1 L627.4,182.6 L579.9,182.6 Z M653.8,182.6 L653.8,4.6 L697,4.6 L697,182.6 L653.8,182.6 Z M851.6,129.1 C851.6,146.6 846,160.5 834.9,171 C823.7,181.5 807.2,186.7 785.2,186.7 C774.9,186.8 764.7,185.5 754.8,182.8 C746.4,180.5 738.4,176.7 731.4,171.6 L727.5,130 C744.7,143.8 763.3,150.6 783.5,150.6 C791.5,150.6 797.7,149.1 802,146 C806.2,143.1 808.6,138.3 808.4,133.3 C808.5,128.3 806.3,123.6 802.5,120.4 C798.6,117.1 791.1,113.4 780.1,109.5 C764.4,104.1 752.6,96.6 744.5,87 C736.7,77.9 732.4,66.2 732.5,54.2 C732.5,47 733.9,39.8 736.7,33.1 C739.4,26.5 743.5,20.6 748.7,15.8 C754.3,10.7 760.8,6.7 768,4.2 C776.4,1.3 785.3,-0.1 794.3,3.55271368e-15 C805.5,3.55271368e-15 814.5,1.1 821.5,3.3 C828.5,5.5 833.9,8 837.8,10.6 L834.4,46.9 C829.3,43.8 823.8,41.3 818.1,39.4 C811.5,37.1 804.5,36 797.6,36 C789.8,36 784,37.5 780.4,40.5 C777,43.1 775,47.1 775,51.4 C775,55.7 776.9,59.3 780.7,62.3 C784.5,65.3 791.7,68.5 802.3,72.1 C809.2,74.4 815.7,77.4 822,81.1 C827.8,84.5 833.1,88.8 837.6,93.8 C841.9,98.6 845.4,104 847.9,109.9 C850.4,116 851.7,122.5 851.6,129.1 L851.6,129.1 Z" id="Shape"></path>
</svg>
