<svg version="1.1" id="Laag_1" xmlns="http://www.w3.org/2000/svg" x="0" y="0" viewBox="0 0 1522 575" xml:space="preserve"><style>.st1{fill:#bddb00}.st2{fill:#635d63}</style><path fill="#de0073" d="M301 11L22 290l279 279 63.4-63.4-1.3-432.5z"/><g id="Laag_5"><path class="st1" d="M363 507l217-217L363 73z"/><path class="st1" d="M237 160h148v86H237zM367 266h148v86H367z"/><path class="st1" d="M237 332h148v86H237z"/></g><g id="Laag_1_1_"><path class="st2" d="M746.8 460.8l-47.4-52c-3.8-4.1-7.8-8.6-11.9-13.4-4.1-4.8-7.9-9.2-11.4-13.3l-.3.2c.2 4.7.3 9.1.3 13.4v63h-15.6V357.2h10.6l43.5 47.7c1.5 1.6 3.1 3.4 4.9 5.5 1.8 2.1 3.7 4.2 5.5 6.3s3.8 4.3 5.6 6.4c1.9 2.2 3.6 4.2 5.2 6.1l.3-.2c-.2-3.9-.3-7.9-.3-12.1v-59.8h15.6v103.7h-4.6zM772 458.6V357.2h54.9v13.2h-39.3V401h32.9v13.2h-32.9v31.2h44.8v13.2H772zM884.6 370.4v88.3H869v-88.3h-32.6v-13.2h80.8v13.2h-32.6zM991.2 441.5c-1.8 3.7-4.5 7-7.7 9.6-3.2 2.5-6.8 4.5-10.7 5.6-3.8 1.2-7.8 1.8-11.8 1.8h-33V357.2h28.3c3.5 0 6.9.6 10.2 1.7 3.3 1.1 6.4 2.7 9.1 4.9 2.8 2.3 5 5.1 6.6 8.3 1.8 3.6 2.6 7.6 2.5 11.7 0 3.7-.8 7.4-2.5 10.7-1.3 3.1-3.8 5.7-6.9 7.1 2.5.7 4.8 1.8 6.9 3.3 2.3 1.6 4.3 3.6 6 5.9 1.8 2.4 3.2 5 4.2 7.8 1.1 3 1.6 6.1 1.6 9.2.2 4.7-.7 9.4-2.8 13.7zm-26.4-68.1c-3.2-2.2-7-3.3-10.8-3.2h-10.5v26.7H954c3.8.1 7.6-1 10.8-3.1 3.1-2.1 4.6-5.4 4.6-10.1 0-4.8-1.6-8.2-4.6-10.3zm12 46.5c-1.1-2.2-2.7-4.1-4.6-5.6-2-1.5-4.2-2.6-6.6-3.3-2.5-.7-5.1-1.1-7.7-1.1h-14.5v35.6h14.5c2.6 0 5.2-.3 7.7-1 2.4-.6 4.6-1.7 6.6-3.2 1.9-1.5 3.5-3.4 4.6-5.6 1.2-2.5 1.8-5.2 1.8-8 .1-2.6-.5-5.4-1.8-7.8zM1011 458.6V357.2h54.9v13.2h-39.3V401h32.9v13.2h-32.9v31.2h44.8v13.2H1011zM1152.5 458.6v-44.4h-52v44.4H1085V357.2h15.6V401h52v-43.8h15.6v101.4h-15.7zM1188.8 458.6V357.2h54.9v13.2h-39.3V401h32.9v13.2h-32.9v31.2h44.8v13.2h-60.4zM1262.7 458.6V357.2h54.9v13.2h-39.3V401h32.9v13.2h-32.9v31.2h44.8v13.2h-60.4zM1398 458.6l-32-44.5h-14.3v44.5h-15.2V357.2h32.1c3.7 0 7.3.6 10.8 1.8 3.6 1.1 6.9 2.9 9.8 5.3 6.5 5.2 10.1 13.1 9.9 21.5 0 6.8-1.7 12.3-5.2 16.6-3.3 4.2-7.7 7.5-12.6 9.5l34.7 46.9h-18zm-15.9-79.8c-.9-1.9-2.3-3.5-3.9-4.8-1.7-1.3-3.6-2.3-5.6-2.9-2.1-.7-4.3-1-6.5-1h-14.2V401h14.2c2.2 0 4.4-.3 6.5-.9 2-.5 4-1.5 5.6-2.8 1.7-1.3 3-3 3.9-4.9 1-2.2 1.5-4.5 1.4-6.9.1-2.3-.4-4.6-1.4-6.7zM660.9 292.6v-178h103.8V150h-60.5v35.4h49.4v36h-49.4v35.7h68.4v35.5H660.9zM943 294.5l-69.2-75.9c-5.6-6.1-11.3-12.7-17.2-19.7s-11.2-13.4-16-19.4l-.6.3c.4 6.3.6 12.7.7 19.3.1 6.5.1 12.6.1 18.1v75.3h-43.3v-178h34.9l60.3 66.4c4.3 4.7 9.2 10.2 14.7 16.6 5.5 6.4 10.3 12.2 14.4 17.4l.6-.3c-.6-10.6-.8-21.7-.8-33.2v-67h43.3v180l-21.9.1zM999.6 292.6v-178h103.8V150h-60.5v35.4h49.4v36h-49.4v35.7h68.4v35.5H999.6zM1239.9 292.6l-23.7-38.5c-1.7-2.8-3.5-6-5.4-9.5-2-3.5-3.8-6.9-5.4-10h-.6c-1.5 3.2-3.3 6.5-5.3 9.9-2 3.4-4 6.6-5.9 9.6l-24.3 38.5h-44.9l57.2-90.4-54.4-87.6h47.4l22.3 36c1.7 2.6 3.4 5.5 5.2 8.6 1.8 3.2 3.3 6.2 4.6 9.2h.6c1.5-3 3.1-6 4.9-9.2 1.8-3.2 3.5-6 5.2-8.6l22.3-36h44.9l-54.1 86.5 56.9 91.5h-47.5zM1313.8 292.6v-178h43.2v178h-43.2zM1511.6 239.1c0 17.5-5.6 31.4-16.7 41.9-11.2 10.5-27.7 15.7-49.7 15.7-10.3.1-20.5-1.2-30.4-3.9-8.4-2.3-16.4-6.1-23.4-11.2l-3.9-41.6c17.2 13.8 35.8 20.6 56 20.6 8 0 14.2-1.5 18.5-4.6 4.2-2.9 6.6-7.7 6.4-12.7.1-5-2.1-9.7-5.9-12.9-3.9-3.3-11.4-7-22.4-10.9-15.7-5.4-27.5-12.9-35.6-22.5-7.8-9.1-12.1-20.8-12-32.8 0-7.2 1.4-14.4 4.2-21.1 2.7-6.6 6.8-12.5 12-17.3 5.6-5.1 12.1-9.1 19.3-11.6 8.4-2.9 17.3-4.3 26.3-4.2 11.2 0 20.2 1.1 27.2 3.3 7 2.2 12.4 4.7 16.3 7.3l-3.4 36.3c-5.1-3.1-10.6-5.6-16.3-7.5-6.6-2.3-13.6-3.4-20.5-3.4-7.8 0-13.6 1.5-17.2 4.5-3.4 2.6-5.4 6.6-5.4 10.9 0 4.3 1.9 7.9 5.7 10.9s11 6.2 21.6 9.8c6.9 2.3 13.4 5.3 19.7 9 5.8 3.4 11.1 7.7 15.6 12.7 4.3 4.8 7.8 10.2 10.3 16.1 2.5 6.1 3.8 12.6 3.7 19.2z"/></g></svg>
