<svg xmlns="http://www.w3.org/2000/svg" style="isolation:isolate" width="285.188" height="80" viewBox="0 0 285.188 80"><defs><clipPath id="a"><path d="M0 0h285.188v80H0z"/></clipPath></defs><g clip-path="url(#a)"><path d="M204.395 27.485a5.358 5.358 0 0 1-5.316 5.819 4.413 4.413 0 0 1-4.201-2.375v5.022a.843.843 0 0 1-.235.651.847.847 0 0 1-.647.252.822.822 0 0 1-.882-.903V22.632a.71.71 0 0 1 .778-.818.735.735 0 0 1 .755.755l.106 1.596a4.539 4.539 0 0 1 4.201-2.478 5.336 5.336 0 0 1 5.441 5.798zm-9.475 0a3.87 3.87 0 0 0 1.761 3.755 3.866 3.866 0 0 0 5.906-3.755 3.867 3.867 0 0 0-1.759-3.756 3.87 3.87 0 0 0-4.147 0 3.87 3.87 0 0 0-1.761 3.756zm22.982-.167a.777.777 0 0 1-.863.797h-8.066a3.867 3.867 0 0 0 4.328 3.802 7.1 7.1 0 0 0 2.899-.588c.567-.167.924 0 .987.482a.734.734 0 0 1-.505.82 7.95 7.95 0 0 1-3.548.694 5.525 5.525 0 0 1-6.009-5.756 5.509 5.509 0 0 1 5.652-5.861 5.02 5.02 0 0 1 5.125 5.61zm-8.929-.442h7.269a3.404 3.404 0 0 0-3.404-3.802 3.804 3.804 0 0 0-3.865 3.802zm17.666-4.265c0 .526-.397.82-.924.903a3.11 3.11 0 0 0-2.772 3.341v5.398a.88.88 0 0 1-.442.763.882.882 0 0 1-1.324-.763v-9.621a.736.736 0 0 1 .757-.818.714.714 0 0 1 .715.712l.167 1.578a3.631 3.631 0 0 1 2.878-2.311c.609 0 .945.293.945.818zm9.433-.379c.442.17.63.463.566.821a.65.65 0 0 1-.672.545 1.493 1.493 0 0 1-.461-.105 7.171 7.171 0 0 0-2.417-.44c-1.617 0-2.478.693-2.478 1.702 0 1.006 1.324 1.575 2.793 2.1 1.787.524 3.802 1.133 3.802 3.359 0 2.229-1.827 3.174-4.199 3.174a9.815 9.815 0 0 1-3.635-.714.694.694 0 0 1-.442-.757.566.566 0 0 1 .609-.546c.146-.027.296-.027.442 0 .92.351 1.892.544 2.878.567 1.827 0 2.626-.776 2.626-1.764 0-.987-1.451-1.596-3.005-2.101-1.554-.504-3.55-1.155-3.55-3.299 0-2.142 1.954-3.108 4.077-3.108a9.553 9.553 0 0 1 3.066.566zm15.545 5.274a5.987 5.987 0 1 1-5.988-5.798 5.709 5.709 0 0 1 4.248 1.603 5.707 5.707 0 0 1 1.74 4.195zm-1.808 0a4.2 4.2 0 1 0-4.201 4.201 4.2 4.2 0 0 0 4.201-4.201zm14.956-.882v5.713a.88.88 0 1 1-1.763 0v-5.819c0-2.099-.988-3.402-2.899-3.402a3.463 3.463 0 0 0-3.341 3.781v5.377a.878.878 0 0 1-.44.763.875.875 0 0 1-.882 0 .875.875 0 0 1-.442-.763v-9.642c0-.546.252-.818.736-.818.482 0 .651.188.713.733l.169 1.597a4.034 4.034 0 0 1 3.95-2.457c2.52 0 4.199 1.575 4.199 4.937zm12.689-1.199v5.631c0 .672.442.588.861.609a.582.582 0 0 1 .439.195.58.58 0 0 1 .148.456.69.69 0 0 1-.376.652 2.253 2.253 0 0 1-1.178.23 1.389 1.389 0 0 1-1.533-1.345v-.691a4.202 4.202 0 0 1-4.074 2.099c-2.102 0-3.95-1.05-3.95-3.402 0-2.353 2.269-3.592 4.979-3.592a23.31 23.31 0 0 1 2.94.23v-1.008c0-1.954-1.261-2.479-2.982-2.479a11.396 11.396 0 0 0-2.983.442.675.675 0 0 1-.924-.59.732.732 0 0 1 .63-.754 13.007 13.007 0 0 1 3.571-.463c2.73.042 4.432 1.072 4.432 3.78zm-7.857 4.35c0 1.554 1.22 2.099 2.541 2.099a3.359 3.359 0 0 0 3.593-3.023v-1.239a16.232 16.232 0 0 0-2.793-.233c-1.724.106-3.341.609-3.341 2.396zm13.906-11.554v12.96c0 .611.252.778.736.757h.4c.156 0 .304.065.41.182a.55.55 0 0 1 .135.427.734.734 0 0 1-.484.651c-.336.15-.702.222-1.07.211a1.765 1.765 0 0 1-1.871-2.101V18.221a.829.829 0 0 1 .222-.651.824.824 0 0 1 .641-.252.842.842 0 0 1 .881.903zm-75.37 26.425l-2.962 9.181a1.302 1.302 0 0 1-2.499 0l-2.394-7.982-2.374 7.982a1.283 1.283 0 0 1-2.479 0l-2.983-9.181c-.231-.734.106-1.239.757-1.239s.672.211.839.735l2.648 8.549 2.435-8.401c.11-.515.567-.883 1.094-.883.528-.017.987.361 1.07.883l2.459 8.401 2.647-8.527c.146-.546.44-.757.818-.757.379 0 1.176.505.924 1.239zm5.925-1.218a.796.796 0 0 1 .84.841v9.663c0 .315-.17.605-.442.764a.883.883 0 0 1-1.322-.764v-8.844l-.672-.189a.758.758 0 0 1-.569-.757c0-.42.275-.672.757-.672l1.408-.042zm.924-3.024v.44a.938.938 0 0 1-.313.708.934.934 0 0 1-.738.237.93.93 0 0 1-1.03-.945v-.44a1.052 1.052 0 0 1 2.102 0h-.021zm10.587 3.802c0 .524-.399.818-.924.903a3.11 3.11 0 0 0-2.774 3.341v5.482a.883.883 0 0 1-1.324.764.884.884 0 0 1-.439-.764v-9.705a.737.737 0 0 1 .754-.82.716.716 0 0 1 .715.714l.169 1.576a3.64 3.64 0 0 1 2.878-2.312c.609.043.945.275.945.821zm13.465 4.683a.784.784 0 0 1-.249.597.788.788 0 0 1-.614.203h-8.064a3.85 3.85 0 0 0 1.313 2.867 3.871 3.871 0 0 0 3.013.935 7.093 7.093 0 0 0 2.899-.588c.567-.169.924 0 .987.482a.735.735 0 0 1-.503.82 7.93 7.93 0 0 1-3.55.692 5.518 5.518 0 0 1-4.305-1.529 5.52 5.52 0 0 1-1.683-4.246 5.496 5.496 0 0 1 1.531-4.18 5.497 5.497 0 0 1 4.121-1.681 5.017 5.017 0 0 1 5.104 5.628zm-8.927-.439h7.267a3.407 3.407 0 0 0-.843-2.671 3.406 3.406 0 0 0-2.559-1.133 3.802 3.802 0 0 0-3.865 3.825v-.021zm14.977-8.718v12.959c0 .609.251.778.735.757h.398a.55.55 0 0 1 .548.609.737.737 0 0 1-.485.651 2.42 2.42 0 0 1-1.072.21 1.764 1.764 0 0 1-1.869-2.1V39.732a.82.82 0 0 1 .863-.903.838.838 0 0 1 .882.903zm15.818 9.157a.784.784 0 0 1-.25.597.786.786 0 0 1-.613.203h-8.045a3.869 3.869 0 0 0 4.328 3.802 7.11 7.11 0 0 0 2.899-.588c.567-.169.924 0 .987.482a.736.736 0 0 1-.505.82 7.925 7.925 0 0 1-3.55.692 5.525 5.525 0 0 1-6.007-5.756 5.492 5.492 0 0 1 1.531-4.178 5.492 5.492 0 0 1 4.119-1.681 5.017 5.017 0 0 1 5.106 5.607zm-8.929-.439h7.269a3.404 3.404 0 0 0-3.404-3.804 3.805 3.805 0 0 0-3.865 3.825v-.021zm19.789-4.644c.44.169.63.463.567.821a.652.652 0 0 1-.673.545 1.543 1.543 0 0 1-.463-.106 7.183 7.183 0 0 0-2.415-.439c-1.617 0-2.478.691-2.478 1.7 0 1.008 1.324 1.575 2.793 2.101 1.785.525 3.802 1.134 3.802 3.36 0 2.227-1.827 3.172-4.201 3.172a9.792 9.792 0 0 1-3.633-.713.693.693 0 0 1-.442-.756.567.567 0 0 1 .609-.546c.146-.028.296-.028.442 0 .92.351 1.893.543 2.878.567 1.827 0 2.626-.778 2.626-1.766 0-.987-1.45-1.596-3.005-2.1-1.554-.505-3.55-1.156-3.55-3.298 0-2.142 1.954-3.108 4.075-3.108a9.565 9.565 0 0 1 3.068.566zm11.911 0c.439.169.63.463.566.821a.651.651 0 0 1-.672.545 1.536 1.536 0 0 1-.463-.106 7.183 7.183 0 0 0-2.415-.439c-1.617 0-2.478.691-2.478 1.7 0 1.008 1.322 1.575 2.793 2.101 1.785.525 3.802 1.134 3.802 3.36 0 2.227-1.827 3.172-4.201 3.172a9.806 9.806 0 0 1-3.635-.713.694.694 0 0 1-.44-.756.563.563 0 0 1 .609-.546c.146-.028.296-.028.442 0a8.66 8.66 0 0 0 2.878.567c1.827 0 2.624-.778 2.624-1.766 0-.987-1.449-1.596-3.003-2.1-1.554-.505-3.55-1.156-3.55-3.298 0-2.142 1.954-3.108 4.075-3.108a9.57 9.57 0 0 1 3.068.566zm-88.647 17.519v12.961c0 .609.251.778.736.757h.397a.534.534 0 0 1 .41.182.543.543 0 0 1 .138.427.738.738 0 0 1-.484.651c-.337.149-.702.22-1.07.21a1.767 1.767 0 0 1-1.872-2.1V61.325a.821.821 0 0 1 .863-.903.841.841 0 0 1 .882.903zm7.016 3.74a.787.787 0 0 1 .606.233.79.79 0 0 1 .233.607v9.536a.883.883 0 0 1-1.322.765.886.886 0 0 1-.441-.765v-8.758l-.673-.191a.754.754 0 0 1-.567-.754c0-.421.273-.673.755-.673h1.409zm.924-3.026v.442a.945.945 0 0 1-1.051.945.932.932 0 0 1-.73-.236.93.93 0 0 1-.298-.709v-.442a1.05 1.05 0 1 1 2.1 0h-.021zm10.608 3.026h3.005c.399 0 .733.188.733.609a.625.625 0 0 1-.609.672l-1.218.146a2.67 2.67 0 0 1 1.009 2.248c0 2.102-1.512 3.55-4.202 3.55a4.776 4.776 0 0 1-2.099-.44c-.427.161-.74.538-.821.988 0 1.26 2.354 1.197 3.95 1.197 2.584 0 3.823.945 3.823 2.666 0 2.711-2.814 3.214-4.704 3.214-1.891 0-5.022-.376-5.022-3.045a2.63 2.63 0 0 1 1.492-2.248 1.7 1.7 0 0 1-1.114-1.681c.07-.759.51-1.435 1.176-1.805a3.383 3.383 0 0 1-1.112-2.605c0-2.415 1.763-3.739 4.347-3.739.465.034.924.127 1.366.273zm-4.559 11.742c0 1.66 1.85 1.869 3.277 1.869 1.43 0 3.109-.188 3.109-1.848 0-1.072-.776-1.427-2.33-1.427a13.936 13.936 0 0 1-3.047-.17 1.826 1.826 0 0 0-.967 1.576h-.042zm.484-8.192c0 1.449.882 2.394 2.648 2.394 1.763 0 2.624-.924 2.624-2.394a2.266 2.266 0 0 0-2.542-2.438c-1.679 0-2.687.863-2.687 2.459l-.043-.021zm13.78-7.248v5.652a4.052 4.052 0 0 1 3.802-2.102c2.521 0 4.202 1.575 4.202 4.853v5.671a.885.885 0 0 1-1.766 0v-5.756c0-2.099-.988-3.402-2.899-3.402a3.47 3.47 0 0 0-3.339 3.781v5.337a.883.883 0 0 1-1.765 0V61.367a.882.882 0 0 1 1.765 0zm15.062 1.157v2.52h2.541c.482 0 .736.252.736.63a.654.654 0 0 1-.736.651h-2.563v6.513c0 1.596.504 2.1 1.681 2.1.292.033.588.033.882 0a.568.568 0 0 1 .778.566c0 .463-.463.63-.59.673a4.45 4.45 0 0 1-1.448.23c-2.102 0-3.047-1.176-3.047-3.59v-6.492h-1.006c-.485 0-.736-.19-.736-.566 0-.379.209-.527.566-.59l1.197-.125.19-2.563a.778.778 0 0 1 .798-.736.736.736 0 0 1 .757.779zm9.033 2.541a.79.79 0 0 1 .606.233.79.79 0 0 1 .233.607v9.536a.881.881 0 1 1-1.763 0v-8.758l-.673-.191a.756.756 0 0 1-.569-.754c0-.421.275-.673.757-.673h1.409zm.924-3.026v.442a.945.945 0 0 1-1.051.945.932.932 0 0 1-.73-.236.929.929 0 0 1-.3-.709v-.442c0-.579.472-1.051 1.051-1.051s1.051.472 1.051 1.051h-.021zm14.913 7.689v5.713a.883.883 0 0 1-1.324.765.886.886 0 0 1-.44-.765v-5.756c0-2.099-.987-3.402-2.898-3.402a3.475 3.475 0 0 0-2.487 1.169 3.47 3.47 0 0 0-.854 2.612v5.377a.883.883 0 0 1-1.324.765.883.883 0 0 1-.44-.765V65.82c0-.546.252-.818.736-.818.482 0 .649.188.713.736l.169 1.596a4.035 4.035 0 0 1 3.948-2.459c2.501-.021 4.201 1.66 4.201 4.853zm10.126-4.663h3.003c.42 0 .736.188.736.609a.63.63 0 0 1-.609.672l-1.218.146a2.655 2.655 0 0 1 1.008 2.248c0 2.102-1.514 3.55-4.201 3.55a4.791 4.791 0 0 1-2.102-.44 1.3 1.3 0 0 0-.734 1.07c0 1.261 2.352 1.199 3.948 1.199 2.584 0 3.823.945 3.823 2.667 0 2.71-2.814 3.214-4.705 3.214-1.89 0-5.019-.379-5.019-3.045a2.621 2.621 0 0 1 1.49-2.248 1.723 1.723 0 0 1-1.112-1.681 2.308 2.308 0 0 1 1.197-1.806 3.381 3.381 0 0 1-1.115-2.605c0-2.417 1.766-3.74 4.35-3.74.425.017.848.08 1.26.19zm-4.559 11.742c0 1.66 1.848 1.869 3.278 1.869 1.427 0 3.108-.188 3.108-1.848 0-1.072-.778-1.427-2.332-1.427a13.928 13.928 0 0 1-3.045-.17 1.826 1.826 0 0 0-1.009 1.576zm.482-8.192c0 1.449.884 2.394 2.648 2.394 1.765 0 2.584-.924 2.584-2.373a2.29 2.29 0 0 0-2.542-2.438c-1.66-.021-2.709.842-2.709 2.438l.019-.021z" fill="currentColor"/><clipPath id="b"><path d="M158.623 21.556c-15.672 0-26.89 10.629-28.253 26.215h-5.086a2.94 2.94 0 0 0-2.939 2.941 2.94 2.94 0 0 0 2.939 2.941h5.086c1.154 16.028 12.602 26.258 30.038 26.258a40.333 40.333 0 0 0 17.812-3.466 3.318 3.318 0 0 0 2.311-3.696 2.561 2.561 0 0 0-1.133-1.85 3.912 3.912 0 0 0-3.278-.061c-.987.294-1.869.609-2.71.902a30.739 30.739 0 0 1-12.266 2.1c-13.423 0-22.31-7.834-22.646-19.977v-.189h41.824a3.443 3.443 0 0 0 3.865-3.55v-.482c-.063-26.048-19.578-28.086-25.564-28.086zm18.233 26.215h-38.358v-.231c.924-12.12 8.906-19.956 20.334-19.956 8.697 0 18.003 5.252 18.003 19.999l.021.188zM73.19 26.324a3.99 3.99 0 1 0-7.961 0v21.447h7.961V26.324zm32.958 29.283c0 10.166-7.267 18.108-16.573 18.108-11.008 0-16.343-5.861-16.343-17.899v-2.099h-7.96v2.605c0 15.691 7.394 23.652 21.992 23.652a19.702 19.702 0 0 0 18.738-11.09l.146-.273v6.595a3.992 3.992 0 1 0 7.961 0V53.674h-7.961v1.933zm3.993-33.379a3.72 3.72 0 0 0-3.993 4.202v21.341h7.961V26.324a3.719 3.719 0 0 0-3.968-4.096zm-82.135-.672c-12.729 0-17.73 8.214-18.905 10.735l-1.03 2.1V4.331A3.869 3.869 0 0 0 4.079.003a3.867 3.867 0 0 0-3.99 4.328v43.44h7.982v-.125c0-9.578 5.525-19.893 17.666-19.893 9.894 0 15.356 6.301 15.356 17.897v2.102h7.982v-1.893c-.064-15.649-7.54-24.303-21.09-24.303h.021zM.025 74.849a3.87 3.87 0 0 0 1.005 3.072 3.87 3.87 0 0 0 2.988 1.235 3.867 3.867 0 0 0 4.053-4.307V53.674H.025v21.175zm41.004 0a3.992 3.992 0 1 0 7.982 0V53.674h-7.982v21.175z" fill="currentColor"/></clipPath><g clip-path="url(#b)"><linearGradient id="c" x1="0%" y1="50%" y2="50%"><stop offset="0%" stop-color="currentColor"/><stop offset="8%" stop-color="currentColor"/><stop offset="14%" stop-color="currentColor"/><stop offset="17%" stop-color="currentColor"/><stop offset="25%" stop-color="currentColor"/><stop offset="33%" stop-color="currentColor"/><stop offset="37%" stop-color="currentColor"/><stop offset="42%" stop-color="currentColor"/><stop offset="51%" stop-color="currentColor"/><stop offset="61%" stop-color="currentColor"/><stop offset="67%" stop-color="currentColor"/><stop offset="77%" stop-color="currentColor"/><stop offset="82%" stop-color="currentColor"/><stop offset="88%" stop-color="currentColor"/><stop offset="100%" stop-color="currentColor"/><stop offset="100%" stop-color="currentColor"/></linearGradient><path fill="url(#c)" d="M-6.633-2.942h192.416v86.693H-6.633z"/></g></g></svg>
