<svg viewBox="0 0 600 147" fill="none" xmlns="http://www.w3.org/2000/svg"><path d="M166.172 34.972c-1 0-1.499.503-1.499 1.409v9.562c0 1.007.499 1.41 1.499 1.41h15.798V96.37h-19.497c-1 0-1.5.503-1.5 1.51v9.461c0 1.007.5 1.409 1.5 1.409h53.591c1 0 1.5-.503 1.5-1.409v-9.461c0-1.007-.6-1.51-1.5-1.51h-21.796V36.48c0-1.006-.5-1.409-1.5-1.409h-26.596v-.1zm239.36 0c-.999 0-1.499.503-1.499 1.409v9.562c0 1.007.6 1.41 1.499 1.41h15.798V96.37h-19.497c-1 0-1.5.503-1.5 1.51v9.461c0 1.007.5 1.409 1.5 1.409h53.591c1 0 1.5-.503 1.5-1.409v-9.461c0-1.007-.5-1.51-1.5-1.51h-21.796V36.48c-.1-1.006-.6-1.409-1.5-1.409h-26.596v-.1zm183.77-.302c-1.5 0-1.9.604-2.3 1.51l-20.896 55.36-21.497-55.058c-.5-1.309-1.1-1.913-2.399-1.913h-8.999c-1 0-1.7.705-1.7 1.812 0 .402.1.705.2 1.007l27.896 71.464-2.4 6.341c-.9 2.013-2.599 7.449-4.699 10.267-1.7 2.416-2.8 3.221-4.599 4.127-1.1.503-2.3.906-3.6.906-.5 0-1-.101-1.499-.101-1.8-.302-3.8-1.006-5.5-1.61-1.099-.403-1.799-.906-2.899-.906-.8 0-1.7.503-1.7 1.912v8.153c0 1.107.3 2.013 1.8 2.818 3.299 1.51 6.099 2.315 10.798 2.315 3.8-.301 6.699-1.308 9.799-3.22 3.099-1.913 5.799-4.53 7.998-7.952 1.1-1.611 2-3.322 2.8-5.033 1.799-3.724 28.295-74.383 33.894-89.38.2-.504.2-.907.2-1.209 0-1.006-.7-1.61-1.7-1.61h-8.998zm-255.258 8.958v-6.542c0-.906-.5-1.41-1.399-1.41h-9.399c-1 0-1.5.504-1.5 1.41v71.061c0 1.007.5 1.41 1.5 1.41h9.399c.999 0 1.399-.504 1.399-1.41V64.463c0-8.354 5.999-17.614 18.097-17.614 11.998 0 18.097 9.36 18.097 17.614v43.684c0 1.007.5 1.41 1.5 1.41h9.498c.9 0 1.4-.504 1.4-1.41V64.262c-.1-7.549-2.399-14.595-8.098-20.936-5.1-5.637-13.998-8.958-21.997-8.958-13.098 0-18.497 9.26-18.497 9.26zM46.592 55.103c0 12.783 6.6 19.124 22.796 21.942l.5.1c11.099 2.014 19.097 3.423 19.097 11.476 0 6.844-7.898 9.964-15.197 9.964-9.099 0-14.598-4.328-15.698-12.28-.1-1.006-.5-1.912-2-1.912h-9.198c-1.3 0-2 .805-2 2.013 0 14.192 11.699 24.057 28.496 24.057 16.797 0 28.495-9.563 28.495-23.252 0-14.997-13.098-18.42-25.396-20.533C61.09 64.162 58.99 59.632 58.99 55.203c0-6.945 7.199-9.36 13.398-9.36 8.398 0 13.498 3.22 14.997 9.662.3 1.007.5 1.913 2 1.913h7.999c1.3 0 2-.806 2-2.013 0-12.784-10.899-21.34-27.196-21.34-17.497-.2-25.596 10.77-25.596 21.038zm212.665-21.44c-16.697 3.423-29.295 19.125-29.295 38.048 0 21.338 16.097 38.651 36.094 38.651 9.098 0 17.497-3.624 23.796-9.663v9.059c0 14.192-7.399 22.043-20.797 22.043-10.098 0-16.297-4.127-18.397-12.38-.3-1.007-.5-1.913-1.999-1.913h-8.199c-1.4 0-2.1.705-2.1 2.114 1.4 14.394 13.798 24.056 30.795 24.056 19.897 0 33.195-13.387 33.195-33.215V36.482c0-1.007-.5-1.41-1.5-1.41h-9.399c-.799 0-1.399.604-1.399 1.41v6.14c-4.7-4.43-10.499-7.65-16.798-8.959-.699-.1-1.299.403-1.299 1.108v11.172c0 .503.3.906.8 1.107 10.298 2.92 17.797 12.985 17.797 24.963 0 14.292-10.699 25.868-23.996 25.868-13.198 0-23.996-11.576-23.996-25.868 0-11.777 7.298-21.641 17.197-24.761.5-.101.8-.604.8-1.007V34.871c0-.604-.5-1.107-1.1-1.107 0-.1-.1-.1-.2-.1zM178.87 12.627c0 5.636 4.499 10.166 10.099 10.166 5.599 0 10.098-4.53 10.098-10.166 0-5.637-4.499-10.167-10.098-10.167-5.6 0-10.099 4.53-10.099 10.166zm239.46 0c0 5.636 4.5 10.166 10.099 10.166s10.098-4.53 10.098-10.166c0-5.637-4.499-10.167-10.098-10.167-5.599 0-10.099 4.53-10.099 10.166zm60.69 12.984v9.36h-15.097c-1.4 0-2.1.705-2.1 2.115v7.75c0 1.409.7 2.114 2.1 2.114h15.097v59.889c0 1.409.7 2.114 2.1 2.114h8.198c1.4 0 2.1-.705 2.1-2.114v-59.89h23.396c1.4 0 2.1-.704 2.1-2.113v-7.75c0-1.41-.7-2.114-2.1-2.114h-23.396V25.61c0-7.75 3.899-12.28 10.398-12.28 5 0 8.499 1.208 13.498 4.53.6.402 1 .402 1.4.402 1 0 1.6-.805 1.6-2.114V8.5c0-1.408-.2-2.113-1.5-3.019-4.899-2.919-9.499-4.127-15.897-4.127-15.098 0-21.897 12.582-21.897 24.258zM65.39.045h-.2C28.594 4.07 0 35.375 0 73.32 0 113.985 32.794 147 73.188 147c40.393 0 73.188-33.015 73.188-73.679 0-37.947-28.496-69.25-65.19-73.276h-.5c-.5 0-1 .1-1.5.503-.3.302-.5.805-.5 1.309v9.461c0 .503.4 1.007.8 1.007 30.596 3.22 54.392 29.29 54.392 60.895 0 33.82-27.296 61.299-60.89 61.299-33.595 0-60.89-27.479-60.89-61.299 0-31.605 23.796-57.674 54.39-60.895.5 0 .8-.504.8-1.007V1.857c0-.604-.2-1.007-.5-1.309-.4-.403-.999-.503-1.499-.503.3-.1.2 0 .1 0" fill="currentColor"/></svg>
