<svg xmlns="http://www.w3.org/2000/svg" width="612.2" height="112.5" viewBox="49.3 688.6 612.2 112.5"><path fill="currentColor" d="M661.5 690v3.6h-5.1c-.5 0-.7.2-.7.7v18.8H651v-18.8c0-.5-.5-.7-.7-.7h-5.1V690h16.3zM640.6 690v3.6h-9.1c-.5 0-.7.5-.7.7v3.3c0 .5.2.7.7.7h6.4v3.6h-6.4c-.5 0-.7.2-.7.7v6.2c0 .5.5.7.7.7h9.1v3.6h-14.4V690h14.4zM604.6 690c.2.2 10 9.5 10 9.5.2.2.5.2.7.2s.5-.5.5-.7v-9h4.6v23.5h-4.6v-4.9c0-1.3-.5-2-1.1-2.9l-8-7.5c-.2-.2-.5-.2-.7-.2-.2.2-.5.5-.5.7v14.7h-4.4V690h3.5z"/><circle fill="currentColor" cx="592.7" cy="710.9" r="2.9"/><path fill="currentColor" d="M438.6 795.1c1.3 0 2.6-1.1 2.6-2.6s-1.1-2.6-2.6-2.6-2.6 1.1-2.6 2.6c0 1.6 1.4 2.6 2.6 2.6zm9.8 0c1.3 0 2.6-1.1 2.6-2.6s-1.1-2.6-2.6-2.6-2.6 1.1-2.6 2.6c-.1 1.6 1.4 2.6 2.6 2.6zm9.9 0c1.3 0 2.6-1.1 2.6-2.6s-1.1-2.6-2.6-2.6-2.6 1.1-2.6 2.6c-.1 1.6 1 2.6 2.6 2.6zm0-9.5c1.3 0 2.6-1.1 2.6-2.6s-1.1-2.6-2.6-2.6-2.6 1.1-2.6 2.6c-.1 1.5 1 2.6 2.6 2.6zm0-24.5c-1.3 0-2.6 1.1-2.6 2.6-1.3 0-2.6 1.1-2.6 2.6s1.1 2.6 2.6 2.6 2.6-1.1 2.6-2.6c1.3 0 2.6-1.1 2.6-2.6s-1.5-2.6-2.6-2.6zm-9.9-4.7c1.3 0 2.6-1.1 2.6-2.6s-1.1-2.6-2.6-2.6-2.6 1.1-2.6 2.6c.1 1.6 1.4 2.6 2.6 2.6zm9.9 0c1.3 0 2.6-1.1 2.6-2.6s-1.1-2.6-2.6-2.6-2.6 1.1-2.6 2.6c-.1 1.6 1 2.6 2.6 2.6zm-19.7-9.8c1.3 0 2.6-1.1 2.6-2.6 0-1.3-1.1-2.6-2.6-2.6s-2.6 1.1-2.6 2.6c.3 1.6 1.4 2.6 2.6 2.6zm19.7 0c1.3 0 2.6-1.1 2.6-2.6 0-1.3-1.1-2.6-2.6-2.6s-2.6 1.1-2.6 2.6 1 2.6 2.6 2.6zm-9.9-9.5c1.3 0 2.6-1.1 2.6-2.6s-1.1-2.6-2.6-2.6-2.6 1.1-2.6 2.6c.1 1.5 1.4 2.6 2.6 2.6zm-9.8-9.8c1.3 0 2.6-1.1 2.6-2.6s-1.1-2.6-2.6-2.6-2.6 1.1-2.6 2.6 1.4 2.6 2.6 2.6zm19.7 0c1.3 0 2.6-1.1 2.6-2.6s-1.1-2.6-2.6-2.6-2.6 1.1-2.6 2.6 1 2.6 2.6 2.6zm-19.7-9.5c1.3 0 2.6-1.1 2.6-2.6s-1.1-2.6-2.6-2.6-2.6 1.1-2.6 2.6 1.4 2.6 2.6 2.6zm19.7-9.8c1.3 0 2.6-1.1 2.6-2.6 0-1.3-1.1-2.6-2.6-2.6s-2.6 1.1-2.6 2.6c-.1 1.5 1 2.6 2.6 2.6zm-19.7-9.8c1.3 0 2.6-1.1 2.6-2.6 0-1.3-1.1-2.6-2.6-2.6s-2.6 1.1-2.6 2.6c.3 1.6 1.4 2.6 2.6 2.6zm3.9 77.5h-.7c-.5 0-1.3-.2-1.5-.5-.5.2-1.1.5-1.5.5s-1.3-.2-1.5-.5c-.5.2-1.1.5-1.5.5-.2 0-.5 0-.7-.2v8c.5-.2 1.1-.5 1.5-.5 0-1.3 1.1-2.6 2.6-2.6 0-1.3 1.1-2.6 2.6-2.6-.6-.8-.1-1.7.7-2.1zm19.3-13.8v35c0 1.3-1.1 2.3-2.3 2.3h-22.2c-1.3 0-2.3-1.1-2.3-2.3v-6.8c1.1-.2 1.5-1.3 1.5-2.3 1.3 0 2.6-1.1 2.6-2.6 1.3 0 2.6-1.1 2.6-2.6 1.3 0 2.6-1.1 2.6-2.6 1.3 0 2.6-1.1 2.6-2.6 1.3 0 2.3-1.1 2.3-2.3.5 0 1.1-.2 1.3-.5.5.2 1.1.5 1.5.5.5 0 1.3-.2 1.5-.5.5.2 1.1.5 1.5.5.5 0 1.3-.2 1.5-.5.5.2 1.1.5 1.5.5 1.3 0 2.6-1.1 2.6-2.6 0-1.3-1.1-2.6-2.6-2.6-.5 0-1.3.2-1.5.5-.5-.2-1.1-.5-1.5-.5-.5 0-1.1.2-1.3.5 0-.2.2-.5.2-.7 0-1.3-1.1-2.6-2.6-2.6-1.3 0-2.6 1.1-2.6 2.6-.7 0-1.5.2-1.8 1.1-.5-.2-1.1-.5-1.5-.5s-1.3.2-1.5.5c-.5-.2-1.1-.5-1.5-.5-.5 0-1.3.2-1.5.5-.5-.2-1.1-.5-1.5-.5-.5 0-1.3.2-1.5.5-.5-.2-1.1-.5-1.5-.5-.2 0-.5 0-.7.2v-78.3c0-1.3 1.1-2.3 2.3-2.3h22.2c1.3 0 2.3 1.1 2.3 2.3v64.7c-1.1.2-2 1.3-2 2.3s0 2.4 1.3 2.7zM397.3 792.8c0-.5.2-1.3.5-1.5-.2-.5-.5-1.1-.5-1.5s.2-1.3.5-1.5c-.2-.5-.5-1.1-.5-1.5 0-1.3 1.1-2.6 2.6-2.6 1.3 0 2.6 1.1 2.6 2.6 0 .5-.2 1.3-.5 1.5.2.5.5 1.1.5 1.5 5.1-6.4 8-16.8 8.8-33.5-.5.2-1.1.5-1.5.5-1.3 0-2.6-1.1-2.6-2.6s1.1-2.6 2.6-2.6c.5 0 1.3.2 1.5.5v-6.9-8.5c-.5.5-1.1.7-1.5.7-1.3 0-2.6-1.1-2.6-2.6s1.1-2.6 2.6-2.6c.5 0 1.1.2 1.5.5-.5-13.9-3.1-27.3-12.6-35.5-8-6.7-18-7.3-33-7.3H328c-1.3 0-2.3 1.1-2.3 2.3v78.6c1.3 0 2.6 1.1 2.6 2.6s-1.1 2.6-2.6 2.6v20.9c0 1.3 1.1 2.3 2.3 2.3h13.7c.2-1.1 1.3-1.8 2.3-1.8 0-1.3 1.1-2.6 2.6-2.6 0-1.3 1.1-2.6 2.6-2.6 0-1.3 1.1-2.6 2.6-2.6 0-1.3 1.1-2.6 2.6-2.6 0-1.3 1.1-2.6 2.6-2.6s2.6 1.1 2.6 2.6-1.1 2.6-2.6 2.6c0 1.3-1.1 2.6-2.6 2.6 0 1.3-1.1 2.6-2.6 2.6 0 1.3-1.1 2.6-2.6 2.6 0 .7-.2 1.3-.7 1.8H366c13.9 0 24.4-.5 31.9-5.7-.2.1-.6-.5-.6-.7zm2.7-89.7c1.3 0 2.6 1.1 2.6 2.6 0 1.3-1.1 2.6-2.6 2.6-1.3 0-2.6-1.1-2.6-2.6-.1-1.6 1.3-2.6 2.6-2.6zm0 9.6c1.3 0 2.6 1.1 2.6 2.6s-1.1 2.6-2.6 2.6c-1.3 0-2.6-1.1-2.6-2.6s1.3-2.6 2.6-2.6zm0 9.7c1.3 0 2.6 1.1 2.6 2.6s-1.1 2.6-2.6 2.6c-1.3 0-2.6-1.1-2.6-2.6s1.3-2.6 2.6-2.6zm-2.7 15.5c0-.5.2-1.3.5-1.5-.2-.5-.5-1.1-.5-1.5 0-1.3 1.1-2.6 2.6-2.6 1.3 0 2.6 1.1 2.6 2.6 0 .5-.2 1.3-.5 1.5.2.5.5 1.1.5 1.5s-.2 1.3-.5 1.5c.2.5.5 1.1.5 1.5 0 1.3-1.1 2.6-2.6 2.6-1.3 0-2.6-1.1-2.6-2.6 0-.5.2-1.3.5-1.5-.1-.5-.5-1-.5-1.5zm0 22.4c0-.5.2-1.3.5-1.5-.2-.5-.5-1.1-.5-1.5s.2-1.3.5-1.5c-.2-.5-.5-1.1-.5-1.5s.2-1.3.5-1.5c-.2-.5-.5-1.1-.5-1.5 0-1.3 1.1-2.6 2.6-2.6 1.3 0 2.6 1.1 2.6 2.6 0 .5-.2 1.3-.5 1.5.2.5.5 1.1.5 1.5s-.2 1.3-.5 1.5c.2.5.5 1.1.5 1.5s-.2 1.3-.5 1.5c.2.5.5 1.1.5 1.5s-.2 1.3-.5 1.5c.2.5.5 1.1.5 1.5 0 1.3-1.1 2.6-2.6 2.6-1.3 0-2.6-1.1-2.6-2.6 0-.5.2-1.3.5-1.5-.1-.2-.5-.7-.5-1.5zm0 12.9c0-.5.2-1.3.5-1.5-.2-.5-.5-1.1-.5-1.5 0-1.3 1.1-2.6 2.6-2.6 1.3 0 2.6 1.1 2.6 2.6 0 .5-.2 1.3-.5 1.5.2.5.5 1.1.5 1.5 0 .5-.2 1.3-.5 1.5.2.5.5 1.1.5 1.5 0 1.3-1.1 2.6-2.6 2.6-1.3 0-2.6-1.1-2.6-2.6 0-.5.2-1.3.5-1.5-.1-.2-.5-.8-.5-1.5zm-7.1-60.5c1.3 0 2.6 1.1 2.6 2.6s-1.1 2.6-2.6 2.6-2.6-1.1-2.6-2.6 1.3-2.6 2.6-2.6zm0 19.3c1.3 0 2.6 1.1 2.6 2.6s-1.1 2.6-2.6 2.6-2.6-1.1-2.6-2.6c0-1.6 1.3-2.6 2.6-2.6zm-9.5-28.9c1.3 0 2.6 1.1 2.6 2.6 0 1.3-1.1 2.6-2.6 2.6s-2.6-1.1-2.6-2.6c-.1-1.6 1-2.6 2.6-2.6zm-9.8-9.8c1.3 0 2.6 1.1 2.6 2.6 0 1.3-1.1 2.6-2.6 2.6s-2.6-1.1-2.6-2.6c.2-1.6 1.3-2.6 2.6-2.6zm-29.1 29.1c1.3 0 2.6 1.1 2.6 2.6s-1.1 2.6-2.6 2.6-2.6-1.1-2.6-2.6 1.3-2.6 2.6-2.6zm0 19.3c1.3 0 2.6 1.1 2.6 2.6 0 1.3-1.1 2.6-2.6 2.6s-2.6-1.1-2.6-2.6c.2-1.5 1.3-2.6 2.6-2.6zm0 9.8c1.3 0 2.6 1.1 2.6 2.6s-1.1 2.6-2.6 2.6-2.6-1.1-2.6-2.6 1.3-2.6 2.6-2.6zm0 9.6c1.3 0 2.6 1.1 2.6 2.6s-1.1 2.6-2.6 2.6-2.6-1.1-2.6-2.6 1.3-2.6 2.6-2.6zm-9.5-67.8c1.3 0 2.6 1.1 2.6 2.6 0 1.3-1.1 2.6-2.6 2.6s-2.6-1.1-2.6-2.6 1-2.6 2.6-2.6zm0 19.4c1.3 0 2.6 1.1 2.6 2.6s-1.1 2.6-2.6 2.6-2.6-1.1-2.6-2.6 1-2.6 2.6-2.6zm0 38.8c1.3 0 2.6 1.1 2.6 2.6s-1.1 2.6-2.6 2.6-2.6-1.1-2.6-2.6c-.1-1.5 1-2.6 2.6-2.6zm0 43.6c-1.3 0-2.6-1.1-2.6-2.6s1.1-2.6 2.6-2.6 2.6 1.1 2.6 2.6c0 1.6-1.5 2.6-2.6 2.6zm2.9-19.4c-.5 0-1.3-.2-1.5-.5-.5.2-1.1.5-1.5.5-1.3 0-2.6-1.1-2.6-2.6s1.1-2.6 2.6-2.6c.5 0 1.3.2 1.5.5.5-.2 1.1-.5 1.5-.5 1.3 0 2.6 1.1 2.6 2.6.1 1.7-1 2.6-2.6 2.6zm6.6 19.4c-1.3 0-2.6-1.1-2.6-2.6s1.1-2.6 2.6-2.6 2.6 1.1 2.6 2.6c0 1.6-1.2 2.6-2.6 2.6zm0-9.5c-1.3 0-2.6-1.1-2.6-2.6s1.1-2.6 2.6-2.6 2.6 1.1 2.6 2.6-1.2 2.6-2.6 2.6zm19.5 9.5c-1.3 0-2.6-1.1-2.6-2.6s1.1-2.6 2.6-2.6 2.6 1.1 2.6 2.6c.1 1.6-1.2 2.6-2.6 2.6zm2.3-12.1c0 1.3-1.1 2.6-2.6 2.6s-2.6-1.1-2.6-2.6 1.1-2.6 2.6-2.6c0-1.3 1.1-2.6 2.6-2.6 1.3 0 2.6 1.1 2.6 2.6s-1 2.6-2.6 2.6zm7.3 12.1c-1.3 0-2.6-1.1-2.6-2.6s1.1-2.6 2.6-2.6 2.6 1.1 2.6 2.6c0 1.6-1.1 2.6-2.6 2.6zm9.8 0c-1.3 0-2.6-1.1-2.6-2.6s1.1-2.6 2.6-2.6 2.6 1.1 2.6 2.6c0 1.6-1.3 2.6-2.6 2.6zm0-9.5c-1.3 0-2.6-1.1-2.6-2.6s1.1-2.6 2.6-2.6 2.6 1.1 2.6 2.6-1.3 2.6-2.6 2.6zm9.5 9.5c-1.3 0-2.6-1.1-2.6-2.6s1.1-2.6 2.6-2.6 2.6 1.1 2.6 2.6c0 1.6-1.1 2.6-2.6 2.6zm0-19.4c-1.3 0-2.6-1.1-2.6-2.6s1.1-2.6 2.6-2.6 2.6 1.1 2.6 2.6c0 1.7-1.1 2.6-2.6 2.6zm2.6-21.8c0 1.3-1.1 2.6-2.6 2.6 0 1.3-1.1 2.6-2.6 2.6 0 1.3-1.1 2.6-2.6 2.6 0 1.1-.5 1.8-1.5 2.3-.5 3.3-1.1 5.7-2 7.3.7.5 1.5 1.3 1.5 2.3 0 1.3-1.1 2.6-2.6 2.6-1.1 0-2-.7-2.3-1.8-1.8 1.1-4.4 1.3-7.5 1.5v.2c0 1.3-1.1 2.6-2.6 2.6-1.3 0-2.6-1.1-2.6-2.6H352.3v-.5c-.2.2-.7.2-1.3.2-.5 0-1.3-.2-1.5-.5-.5.2-1.1.5-1.5.5s-1.3-.2-1.5-.5c-.5.2-1.1.5-1.5.5-1.3 0-2.6-1.1-2.6-2.6s1.1-2.6 2.6-2.6c.5 0 1.3.2 1.5.5.5-.2 1.1-.5 1.5-.5s1.3.2 1.5.5c.5-.2 1.1-.5 1.5-.5.5 0 .7.2 1.3.2V756c-.2.2-.7.2-1.3.2-1.3 0-2.6-1.1-2.6-2.6s1.1-2.6 2.6-2.6c.5 0 .7.2 1.3.2v-14.9c-.2.2-.7.2-1.3.2-1.3 0-2.6-1.1-2.6-2.6s1.1-2.6 2.6-2.6c.5 0 .7.2 1.3.2v-14.9c-.2.2-.7.2-1.3.2-1.3 0-2.6-1.1-2.6-2.6s1.1-2.6 2.6-2.6c.7 0 1.3.2 1.8.7h9.3c7.5 0 12.4.2 15.7 1.8 0-1.3 1.1-2.3 2.6-2.3 1.3 0 2.6 1.1 2.6 2.6 0 1.3-.7 2-1.8 2.3 3.1 4.2 3.3 12.2 3.3 27.8 0 4.4 0 8.2-.2 11.3.2 0 .5-.2 1.1-.2 0-1.3 1.1-2.6 2.6-2.6 0-1.3 1.1-2.6 2.6-2.6 0-1.3 1.1-2.6 2.6-2.6s2.6 1.1 2.6 2.6c0 1.6-1.8 3.5-3 3.5zM213.9 690h-74.7c-1.3 0-2.3 1.1-2.3 2.3v18.6c0 .7.2 1.3.7 1.8.5.5 1.1.7 1.8.7 0 0 19.8-.2 24-.2v57.9c.2-.2.7-.2 1.3-.2 1.3 0 2.6 1.1 2.6 2.6s-1.1 2.6-2.6 2.6c-.5 0-.7-.2-1.3-.2V797c0 1.3 1.1 2.3 2.3 2.3h9.3v-.3c0-.5.2-1.3.5-1.5-.2-.5-.5-1.1-.5-1.5 0-.5.2-1.3.5-1.5-.2-.5-.5-1.1-.5-1.5s.2-1.3.5-1.5c-.2-.5-.5-1.1-.5-1.5s.2-1.3.5-1.5c-.2-.5-.5-1.1-.5-1.5s.2-1.3.5-1.5c-.2-.5-.5-1.1-.5-1.5 0-1.3 1.1-2.6 2.6-2.6 1.3 0 2.6 1.1 2.6 2.6 0 .5-.2 1.3-.5 1.5.2.5.5 1.1.5 1.5s-.2 1.3-.5 1.5c.2.5.5 1.1.5 1.5s-.2 1.3-.5 1.5c.2.5.5 1.1.5 1.5s-.2 1.3-.5 1.5c.2.5.5 1.1.5 1.5 0 .5-.2 1.3-.5 1.5.2.5.5 1.1.5 1.5v.2h8c1.3 0 2.3-1.1 2.3-2.3v-21.1c-.5 0-1.3-.2-1.5-.5-.5.2-1.1.5-1.5.5-1.3 0-2.6-1.1-2.6-2.6s1.1-2.6 2.6-2.6c.5 0 1.3.2 1.5.5.5-.2 1.1-.5 1.5-.5v-52.8c-.5 0-1.3-.2-1.5-.5-.5.2-1.1.5-1.5.5-.5 0-1.3-.2-1.5-.5-.5.2-1.1.5-1.5.5-1.3 0-2.6-1.1-2.6-2.6s1.1-2.6 2.6-2.6c.5 0 1.3.2 1.5.5.5-.2 1.1-.5 1.5-.5s1.3.2 1.5.5c.5-.2 1.1-.5 1.5-.5.5 0 .7 0 1.1.2 5.7 0 22.9.2 22.9.2.7 0 1.3-.2 1.8-.7.5-.5.7-1.1.7-1.8v-18.6c-.5-.9-1.6-1.9-3.1-1.9zm-56.2 8.2c-1.3 0-2.6-1.1-2.6-2.6 0-1.3 1.1-2.6 2.6-2.6s2.6 1.1 2.6 2.6c.1 1.6-1 2.6-2.6 2.6zm29.1 24.2c1.3 0 2.6 1.1 2.6 2.6s-1.1 2.6-2.6 2.6-2.6-1.1-2.6-2.6c.1-1.5 1.3-2.6 2.6-2.6zm0 29.1c1.3 0 2.6 1.1 2.6 2.6s-1.1 2.6-2.6 2.6-2.6-1.1-2.6-2.6c.1-1.5 1.3-2.6 2.6-2.6zm0 9.6c1.3 0 2.6 1.1 2.6 2.6s-1.1 2.6-2.6 2.6-2.6-1.1-2.6-2.6 1.3-2.6 2.6-2.6zm0 19.3c1.3 0 2.6 1.1 2.6 2.6s-1.1 2.6-2.6 2.6-2.6-1.1-2.6-2.6c0-1.6 1.3-2.6 2.6-2.6zm0 9.7c1.3 0 2.6 1.1 2.6 2.6s-1.1 2.6-2.6 2.6-2.6-1.1-2.6-2.6c.1-1.5 1.3-2.6 2.6-2.6zM177 732c1.3 0 2.6 1.1 2.6 2.6s-1.1 2.6-2.6 2.6c-1.3 0-2.6-1.1-2.6-2.6.1-1.6 1.3-2.6 2.6-2.6zm-2.2 15.5c0-.5.2-1.3.5-1.5-.2-.5-.5-1.1-.5-1.5 0-1.3 1.1-2.6 2.6-2.6 1.3 0 2.6 1.1 2.6 2.6 0 .5-.2 1.3-.5 1.5.2.5.5 1.1.5 1.5s-.2 1.3-.5 1.5c.2.5.5 1.1.5 1.5 0 1.3-1.1 2.6-2.6 2.6-1.3 0-2.6-1.1-2.6-2.6 0-.5.2-1.3.5-1.5-.3-.3-.5-.8-.5-1.5zm-7.3 47.6c-1.3 0-2.6-1.1-2.6-2.6s1.1-2.6 2.6-2.6 2.6 1.1 2.6 2.6c0 1.6-1.3 2.6-2.6 2.6zm0-9.5c-1.3 0-2.6-1.1-2.6-2.6s1.1-2.6 2.6-2.6 2.6 1.1 2.6 2.6-1.3 2.6-2.6 2.6zm0-19.7c-1.3 0-2.6-1.1-2.6-2.6s1.1-2.6 2.6-2.6 2.6 1.1 2.6 2.6-1.3 2.6-2.6 2.6zm0-9.5c-1.3 0-2.6-1.1-2.6-2.6s1.1-2.6 2.6-2.6 2.6 1.1 2.6 2.6c0 1.6-1.3 2.6-2.6 2.6zm0-19.3c-1.3 0-2.6-1.1-2.6-2.6s1.1-2.6 2.6-2.6 2.6 1.1 2.6 2.6-1.3 2.6-2.6 2.6zm0-38.9c-1.3 0-2.6-1.1-2.6-2.6 0-1.3 1.1-2.6 2.6-2.6s2.6 1.1 2.6 2.6c0 1.6-1.3 2.6-2.6 2.6zm15.5 75c0 1.3-1.1 2.6-2.6 2.6-.5 0-1.3-.2-1.5-.5-.5.2-1.1.5-1.5.5-.5 0-1.3-.2-1.5-.5-.5.2-1.1.5-1.5.5-1.3 0-2.6-1.1-2.6-2.6s1.1-2.6 2.6-2.6c.2 0 .5 0 1.1.2 0-.2-.2-.5-.2-1.1 0-.5.2-1.3.5-1.5-.2-.5-.5-1.1-.5-1.5s.2-1.3.5-1.5c-.2-.5-.5-1.1-.5-1.5s.2-1.3.5-1.5c-.2-.5-.5-1.1-.5-1.5 0-1.3 1.1-2.6 2.6-2.6 1.3 0 2.6 1.1 2.6 2.6 0 .5-.2 1.3-.5 1.5.2.5.5 1.1.5 1.5s-.2 1.3-.5 1.5c.2.5.5 1.1.5 1.5s-.2 1.3-.5 1.5c.2.5.5 1.1.5 1.5 0 .2 0 .5-.2 1.1.2 0 .5-.2 1.1-.2.3.2 1.6 1.3 1.6 2.6zm13.6-75c-1.3 0-2.6-1.1-2.6-2.6 0-1.3 1.1-2.6 2.6-2.6s2.6 1.1 2.6 2.6c-.2 1.6-1.3 2.6-2.6 2.6zm9.5 9.8c-1.3 0-2.6-1.1-2.6-2.6 0-1.3 1.1-2.6 2.6-2.6s2.6 1.1 2.6 2.6c.1 1.5-1 2.6-2.6 2.6zM301.7 776.8c-.5-.5-1.1-.7-1.8-.7 0 0-37.9.5-40.4.5v-20.9c4.2 0 29.1.5 29.1.5.7 0 1.3-.2 1.8-.7s.7-1.1.7-1.8v-18.6c0-.7-.2-1.3-.7-1.8-.5-.5-1.1-.7-1.8-.7h-3.3c.5.5.7 1.1.7 1.8 0 1.3-1.1 2.6-2.6 2.6s-2.6-1.1-2.6-2.6c0-.7.2-1.3.7-1.8h-6.2c.5.5.7 1.1.7 1.5 0 1.3-1.1 2.6-2.6 2.6s-2.6-1.1-2.6-2.6c0-.5.2-1.1.5-1.5h-6c.2.5.5.7.5 1.5 0 1.3-1.1 2.6-2.6 2.6-.5 0-1.3-.2-1.5-.5-.5.2-1.1.5-1.5.5-.5 0-1.3-.2-1.5-.5-.5.2-1.1.5-1.5.5-.5 0-1.3-.2-1.5-.5-.5.2-1.1.5-1.5.5-.5 0-1.3-.2-1.5-.5-.5.2-1.1.5-1.5.5-.5 0-1.3-.2-1.5-.5-.5.2-1.1.5-1.5.5-1.3 0-2.6-1.1-2.6-2.6s1.1-2.6 2.6-2.6c.5 0 1.3.2 1.5.5.5-.2 1.1-.5 1.5-.5s1.3.2 1.5.5c.5-.2 1.1-.5 1.5-.5.5 0 1.3.2 1.5.5.5-.2 1.1-.5 1.5-.5.5 0 1.3.2 1.5.5v-19.8c2.6 0 40.4.5 40.4.5.7 0 1.3-.2 1.8-.7.5-.5.7-1.1.7-1.8v-18.6c0-1.3-1.1-2.3-2.3-2.3h-65c-1.3 0-2.3 1.1-2.3 2.3v39.9c.5 0 .7.2 1.3.5.5-.2 1.1-.5 1.5-.5s1.3.2 1.5.5c.5-.2 1.1-.5 1.5-.5 1.3 0 2.6 1.1 2.6 2.6s-1.1 2.6-2.6 2.6c-.5 0-1.3-.2-1.5-.5-.5.2-1.1.5-1.5.5-.5 0-1.3-.2-1.5-.5-.2.2-.7.5-1.3.5v30.2c.2.2.2.7.2 1.1 1.3 0 2.6 1.1 2.6 2.6 1.3 0 2.6 1.1 2.6 2.6 1.3 0 2.6 1.1 2.6 2.6s-1.1 2.6-2.6 2.6-2.6-1.1-2.6-2.6c-.5 0-1.3-.2-1.5-.5-.2.2-.7.5-1.3.5v21.3c0 1.3 1.1 2.3 2.3 2.3H257c-.5-.5-.7-1.1-.7-1.8-1.3 0-2.6-1.1-2.6-2.6-1.3 0-2.6-1.1-2.6-2.6-1.3 0-2.6-1.1-2.6-2.6-1.3 0-2.6-1.1-2.6-2.6s1.1-2.6 2.6-2.6 2.6 1.1 2.6 2.6c1.3 0 2.6 1.1 2.6 2.6 1.3 0 2.6 1.1 2.6 2.6 1.3 0 2.6 1.1 2.6 2.6 1.3 0 2.6 1.1 2.6 2.6 1.1 0 2 .7 2.3 1.8h35.5c1.3 0 2.3-1.1 2.3-2.3v-18.6c1-.6.7-1.5.1-1.7zm-18-35.1c1.3 0 2.6 1.1 2.6 2.6 0 1.3-1.1 2.6-2.6 2.6s-2.6-1.1-2.6-2.6 1.3-2.6 2.6-2.6zm0-38.6c1.3 0 2.6 1.1 2.6 2.6 0 1.3-1.1 2.6-2.6 2.6s-2.6-1.1-2.6-2.6c0-1.6 1.3-2.6 2.6-2.6zm-9.7-9.8c1.3 0 2.6 1.1 2.6 2.6 0 1.3-1.1 2.6-2.6 2.6s-2.6-1.1-2.6-2.6c.3-1.6 1.3-2.6 2.6-2.6zm-19.3 19.4c1.3 0 2.6 1.1 2.6 2.6s-1.1 2.6-2.6 2.6-2.6-1.1-2.6-2.6 1.2-2.6 2.6-2.6zm-19.4 5.1c-1.3 0-2.6-1.1-2.6-2.6s1.1-2.6 2.6-2.6c1.3 0 2.6 1.1 2.6 2.6s-1.4 2.6-2.6 2.6zm0 77.3c-1.3 0-2.6-1.1-2.6-2.6s1.1-2.6 2.6-2.6c1.3 0 2.6 1.1 2.6 2.6.1 1.6-1.4 2.6-2.6 2.6zm9.8-101.8c1.3 0 2.6 1.1 2.6 2.6 0 1.3-1.1 2.6-2.6 2.6s-2.6-1.1-2.6-2.6 1.1-2.6 2.6-2.6zm0 29.1c1.3 0 2.6 1.1 2.6 2.6s-1.1 2.6-2.6 2.6-2.6-1.1-2.6-2.6 1.1-2.6 2.6-2.6zm2.3 70.4c0 1.3-1.1 2.6-2.6 2.6s-2.6-1.1-2.6-2.6 1.1-2.6 2.6-2.6c1.6-.1 2.6 1 2.6 2.6zm-2.3-7.2c-1.3 0-2.6-1.1-2.6-2.6-1.3 0-2.6-1.1-2.6-2.6s1.1-2.6 2.6-2.6 2.6 1.1 2.6 2.6c1.3 0 2.6 1.1 2.6 2.6s-1.3 2.6-2.6 2.6zm0-9.9c-1.3 0-2.6-1.1-2.6-2.6s1.1-2.6 2.6-2.6 2.6 1.1 2.6 2.6c-.1 1.7-1.3 2.6-2.6 2.6zm0-9.8c-1.3 0-2.6-1.1-2.6-2.6s1.1-2.6 2.6-2.6 2.6 1.1 2.6 2.6-1.3 2.6-2.6 2.6zm0-19.3c-1.3 0-2.6-1.1-2.6-2.6 0-1.3 1.1-2.6 2.6-2.6s2.6 1.1 2.6 2.6c-.3 1.6-1.3 2.6-2.6 2.6zm9.6 29.1c-1.3 0-2.6-1.1-2.6-2.6s1.1-2.6 2.6-2.6 2.6 1.1 2.6 2.6c-.1 1.7-1.3 2.6-2.6 2.6zm0-19.3c-1.3 0-2.6-1.1-2.6-2.6s1.1-2.6 2.6-2.6 2.6 1.1 2.6 2.6c-.1 1.6-1.3 2.6-2.6 2.6zm9.7 38.7c-1.3 0-2.6-1.1-2.6-2.6s1.1-2.6 2.6-2.6c1.3 0 2.6 1.1 2.6 2.6 0 1.6-1.3 2.6-2.6 2.6zm0-9.5c-1.3 0-2.6-1.1-2.6-2.6s1.1-2.6 2.6-2.6c1.3 0 2.6 1.1 2.6 2.6s-1.3 2.6-2.6 2.6zm9.6 9.5c-1.3 0-2.6-1.1-2.6-2.6s1.1-2.6 2.6-2.6 2.6 1.1 2.6 2.6c0 1.6-1.1 2.6-2.6 2.6zm9.7 0c-1.3 0-2.6-1.1-2.6-2.6s1.1-2.6 2.6-2.6 2.6 1.1 2.6 2.6c.1 1.6-1.3 2.6-2.6 2.6zm0-9.5c-1.3 0-2.6-1.1-2.6-2.6s1.1-2.6 2.6-2.6 2.6 1.1 2.6 2.6c.1 1.5-1.3 2.6-2.6 2.6zm9.6 9.5c-1.3 0-2.6-1.1-2.6-2.6s1.1-2.6 2.6-2.6 2.6 1.1 2.6 2.6c0 1.6-1.1 2.6-2.6 2.6zM119.1 756.4c-1.3 0-2.6-1.1-2.6-2.6s1.1-2.6 2.6-2.6c0-.5.2-1.1.5-1.5-2.3-4.9-6.4-8.2-14.2-11.6l-4.2-1.5c-.5.2-1.1.5-1.5.5s-1.3-.2-1.5-.5c-.5.2-1.1.5-1.5.5s-1.3-.2-1.5-.5c-.5.2-1.1.5-1.5.5-.5 0-1.3-.2-1.5-.5-.5.2-1.1.5-1.5.5s-1.3-.2-1.5-.5c-.5.2-1.1.5-1.5.5s-1.3-.2-1.5-.5c-.5.2-1.1.5-1.5.5-1.3 0-2.6-1.1-2.6-2.6s1.1-2.6 2.6-2.6c.5 0 1.3.2 1.5.5.5-.2 1.1-.5 1.5-.5s1.3.2 1.5.5c.5-.2 1.1-.5 1.5-.5s1.3.2 1.5.5h.2c-8.2-3.3-11.6-4.6-12.2-4.9-3.8-1.8-3.8-2.6-3.8-6.7v-2c0-2.9.2-4.4 1.1-5.4.5-.5 1.5-1.3 4.9-1.3l11.6.2 8.8.5 13.1.5c.7 0 1.3-.2 1.8-.7s.7-1.1.7-1.8V692c0-1.3-1.1-2.3-2.3-2.3l-8-.5c-6.2-.5-10.3-.7-17.5-.7-7.3 0-12.9 0-18 .7-11.8 1.5-17.8 7.3-20.4 13.4 1.3.2 2 1.3 2 2.3 0 1.3-1.1 2.6-2.6 2.6-.5 0-.7 0-1.1-.2-1.1 4.2-1.1 8.2-1.1 11.8 0 20.1 4.4 24 21.9 31.2l6.9 2.9c.2-1.3 1.3-2 2.3-2 1.3 0 2.6 1.1 2.6 2.6 0 .5-.2 1.1-.5 1.3l9.1 3.6c4.2 1.5 4.2 2.6 3.8 8.2v4.2c.2-.2.7-.5 1.3-.5s1.3.2 1.5.5c.5-.5 1.1-1.1 1.8-1.1 0-1.3 1.1-2.6 2.6-2.6 0-1.3 1.1-2.6 2.6-2.6 1.3 0 2.6 1.1 2.6 2.6 0 1.3-1.1 2.6-2.6 2.6 0 .2 0 .5-.2.7.2-.2.7-.5 1.3-.5 1.3 0 2.6 1.1 2.6 2.6 0 1.3-1.1 2.6-2.6 2.6-.5 0-1.3-.2-1.5-.5-.5.2-1.1.5-1.5.5s-1.3-.2-1.5-.5c-.2.2-.7.5-1.3.5-.2 1.3-1.1 2.3-2.3 2.3 0 1.3-1.1 2.6-2.6 2.6 0 1.3-1.1 2.6-2.6 2.6 0 1.3-1.1 2.6-2.6 2.6-1.3 0-2.6-1.1-2.6-2.6 0-1.3 1.1-2.6 2.6-2.6 0-1.3 1.1-2.6 2.6-2.6 0-.2 0-.7.2-1.1-1.8.2-4.6.2-7.7.2-10.3 0-14.9-.2-18.2-.5l-14.7-1.1c-.7 0-1.3.2-1.8.7-.5.5-.7 1.1-.7 1.8v3.3c.5-.5 1.1-.7 1.5-.7 1.3 0 2.6 1.1 2.6 2.6s-1.1 2.6-2.6 2.6c-.5 0-1.3-.2-1.5-.7v6c.5-.5 1.1-.7 1.5-.7 1.3 0 2.6 1.1 2.6 2.6s-1.1 2.6-2.6 2.6c-.5 0-1.3-.2-1.5-.7v2.3c0 1.3 1.1 2.3 2.3 2.3 2.9.2 10 .7 17.5 1.3.2 0 .5-.2 1.1-.2 0-1.3 1.1-2.6 2.6-2.6 0-1.3 1.1-2.6 2.6-2.6 0-1.3 1.1-2.6 2.6-2.6 0-1.3 1.1-2.6 2.6-2.6 0-1.3 1.1-2.6 2.6-2.6 0-1.3 1.1-2.6 2.6-2.6s2.6 1.1 2.6 2.6-1.1 2.6-2.6 2.6c0 1.3-1.1 2.6-2.6 2.6 0 1.3-1.1 2.6-2.6 2.6 0 1.3-1.1 2.6-2.6 2.6 0 1.3-1.1 2.6-2.6 2.6v.5h.7c2.3 0 4.6.2 6.7.2 13.4 0 29.3-1.5 35.8-13.1 2.9-5.4 3.3-15.3 3.3-22.9 0-3.6-.2-6.7-.5-9.5-1.6.4-2.5.9-3.2.9zm-19.3-63.1c1.3 0 2.6 1.1 2.6 2.6 0 1.3-1.1 2.6-2.6 2.6s-2.6-1.1-2.6-2.6 1.1-2.6 2.6-2.6zm-9.9 9.8c1.3 0 2.6 1.1 2.6 2.6 0 1.3-1.1 2.6-2.6 2.6-1.3 0-2.6-1.1-2.6-2.6.1-1.6 1.4-2.6 2.6-2.6zm-19.3-9.8c1.3 0 2.6 1.1 2.6 2.6 0 1.3-1.1 2.6-2.6 2.6s-2.6-1.1-2.6-2.6 1.4-2.6 2.6-2.6zm0 29.1c1.3 0 2.6 1.1 2.6 2.6s-1.1 2.6-2.6 2.6-2.6-1.1-2.6-2.6c.1-1.5 1.4-2.6 2.6-2.6zm-9.8 14.7c-1.3 0-2.6-1.1-2.6-2.6s1.1-2.6 2.6-2.6c1.3 0 2.6 1.1 2.6 2.6s-1 2.6-2.6 2.6zm9.8 9.5c-1.3 0-2.6-1.1-2.6-2.6 0-1.3 1.1-2.6 2.6-2.6s2.6 1.1 2.6 2.6-1.3 2.6-2.6 2.6zm6.4-9.5c-.5 0-1.3-.2-1.5-.5-.5.2-1.1.5-1.5.5-.5 0-1.3-.2-1.5-.5-.5.2-1.1.5-1.5.5-1.3 0-2.6-1.1-2.6-2.6s1.1-2.6 2.6-2.6c.5 0 1.3.2 1.5.5.5-.2 1.1-.5 1.5-.5.5 0 1.3.2 1.5.5.5-.2 1.1-.5 1.5-.5 1.3 0 2.6 1.1 2.6 2.6.1 1.5-1.3 2.6-2.6 2.6zm12.9 9.5c-1.3 0-2.6-1.1-2.6-2.6 0-1.3 1.1-2.6 2.6-2.6 1.3 0 2.6 1.1 2.6 2.6s-1.3 2.6-2.6 2.6zm9.9 9.8c-1.3 0-2.6-1.1-2.6-2.6s1.1-2.6 2.6-2.6 2.6 1.1 2.6 2.6c-.1 1.6-1.4 2.6-2.6 2.6zm-39 38.7c-1.3 0-2.6-1.1-2.6-2.6s1.1-2.6 2.6-2.6c1.3 0 2.6 1.1 2.6 2.6 0 1.6-1 2.6-2.6 2.6zm9.8 0c-1.3 0-2.6-1.1-2.6-2.6s1.1-2.6 2.6-2.6 2.6 1.1 2.6 2.6c0 1.6-1.3 2.6-2.6 2.6zm0-9.5c-1.3 0-2.6-1.1-2.6-2.6s1.1-2.6 2.6-2.6 2.6 1.1 2.6 2.6-1.3 2.6-2.6 2.6zm19.3 9.5c-1.3 0-2.6-1.1-2.6-2.6s1.1-2.6 2.6-2.6c1.3 0 2.6 1.1 2.6 2.6 0 1.6-1.3 2.6-2.6 2.6zm9.9 0c-1.3 0-2.6-1.1-2.6-2.6s1.1-2.6 2.6-2.6 2.6 1.1 2.6 2.6c0 1.6-1.4 2.6-2.6 2.6zm9.5-53.4c1.3 0 2.6 1.1 2.6 2.6 0 1.3-1.1 2.6-2.6 2.6s-2.6-1.1-2.6-2.6c.3-1.5 1.3-2.6 2.6-2.6zm-2.3 12.2c0-1.3 1.1-2.6 2.6-2.6s2.6 1.1 2.6 2.6-1.1 2.6-2.6 2.6c-1.6 0-2.6-1.1-2.6-2.6zm2.3 41.2c-1.3 0-2.6-1.1-2.6-2.6s1.1-2.6 2.6-2.6 2.6 1.1 2.6 2.6c.1 1.6-1 2.6-2.6 2.6zm0-9.5c-1.3 0-2.6-1.1-2.6-2.6s1.1-2.6 2.6-2.6 2.6 1.1 2.6 2.6c.1 1.5-1 2.6-2.6 2.6zm2.3-21.7c-1.3 0-2.6-1.1-2.6-2.6s1.1-2.6 2.6-2.6c0-1.3 1.1-2.6 2.6-2.6s2.6 1.1 2.6 2.6-1.1 2.6-2.6 2.6c-.3 1.5-1.3 2.6-2.6 2.6zm7.5 11.8c-.5 0-1.3-.2-1.5-.5-.5.2-1.1.5-1.5.5-1.3 0-2.6-1.1-2.6-2.6s1.1-2.6 2.6-2.6c.5 0 1.3.2 1.5.5.5-.2 1.1-.5 1.5-.5 1.3 0 2.6 1.1 2.6 2.6-.1 1.7-1.3 2.6-2.6 2.6zM506.4 795.1c1.3 0 2.6-1.1 2.6-2.6s-1.1-2.6-2.6-2.6-2.6 1.1-2.6 2.6c0 1.6 1.3 2.6 2.6 2.6zm58.2 0c1.3 0 2.6-1.1 2.6-2.6s-1.1-2.6-2.6-2.6-2.6 1.1-2.6 2.6c0 1.6 1.4 2.6 2.6 2.6zm9.9 0c1.3 0 2.6-1.1 2.6-2.6s-1.1-2.6-2.6-2.6-2.6 1.1-2.6 2.6c0 1.6 1 2.6 2.6 2.6zm-75-15.5c0-1.3-1.1-2.6-2.6-2.6s-2.6 1.1-2.6 2.6c0 .5.2 1.3.5 1.5-.2.5-.5 1.1-.5 1.5 0 1.3 1.1 2.6 2.6 2.6s2.6-1.1 2.6-2.6c0-.5-.2-1.3-.5-1.5.1-.1.5-.7.5-1.5zm75 6c1.3 0 2.6-1.1 2.6-2.6s-1.1-2.6-2.6-2.6-2.6 1.1-2.6 2.6 1 2.6 2.6 2.6zm0-14.8c-.5 0-1.3.2-1.5.5-.5-.2-1.1-.5-1.5-.5s-1.3.2-1.5.5c-.5-.2-1.1-.5-1.5-.5-1.3 0-2.6 1.1-2.6 2.6s1.1 2.6 2.6 2.6c.5 0 1.3-.2 1.5-.5.5.2 1.1.5 1.5.5s1.3-.2 1.5-.5c.5.2 1.1.5 1.5.5 1.3 0 2.6-1.1 2.6-2.6-.1-1.5-1.4-2.6-2.6-2.6zm-75-7.1c0-1.3-1.1-2.6-2.6-2.6s-2.6 1.1-2.6 2.6c0 .5.2 1.3.5 1.5-.2.5-.5 1.1-.5 1.5 0 1.3 1.1 2.6 2.6 2.6s2.6-1.1 2.6-2.6c0-.5-.2-1.3-.5-1.5.1-.6.5-1 .5-1.5zm75 2.2c1.3 0 2.6-1.1 2.6-2.6s-1.1-2.6-2.6-2.6-2.6 1.1-2.6 2.6 1 2.6 2.6 2.6zm-75-15.1c0-1.3-1.1-2.6-2.6-2.6s-2.6 1.1-2.6 2.6c0 .5.2 1.3.5 1.5-.2.5-.5 1.1-.5 1.5 0 1.3 1.1 2.6 2.6 2.6s2.6-1.1 2.6-2.6c0-.5-.2-1.3-.5-1.5.1-.5.5-1 .5-1.5zm6.9 5.6c1.3 0 2.6-1.1 2.6-2.6s-1.1-2.6-2.6-2.6-2.6 1.1-2.6 2.6c0 1.6 1.3 2.6 2.6 2.6zm38.9 0c1.3 0 2.6-1.1 2.6-2.6s-1.1-2.6-2.6-2.6-2.6 1.1-2.6 2.6c.1 1.6 1 2.6 2.6 2.6zm9.5 0c1.3 0 2.6-1.1 2.6-2.6s-1.1-2.6-2.6-2.6-2.6 1.1-2.6 2.6c.1 1.6 1.3 2.6 2.6 2.6zm19.7 0c1.3 0 2.6-1.1 2.6-2.6s-1.1-2.6-2.6-2.6-2.6 1.1-2.6 2.6c0 1.6 1 2.6 2.6 2.6zm-77.6-9.8c1.3 0 2.6-1.1 2.6-2.6 0-1.3-1.1-2.6-2.6-2.6s-2.6 1.1-2.6 2.6 1.3 2.6 2.6 2.6zm38.6 0c1.3 0 2.6-1.1 2.6-2.6 0-1.3-1.1-2.6-2.6-2.6-1.3 0-2.6 1.1-2.6 2.6.3 1.6 1.3 2.6 2.6 2.6zM506.4 732c-.5 0-1.3.2-1.5.5-.5-.2-1.1-.5-1.5-.5s-1.3.2-1.5.5c-.5-.2-1.1-.5-1.5-.5-1.3 0-2.6 1.1-2.6 2.6s1.1 2.6 2.6 2.6c.5 0 1.3-.2 1.5-.5.5.2 1.1.5 1.5.5s1.3-.2 1.5-.5c.5.2 1.1.5 1.5.5 1.3 0 2.6-1.1 2.6-2.6s-1-2.6-2.6-2.6zm38.9 0c-.5 0-1.3.2-1.5.5-.5-.2-1.1-.5-1.5-.5-1.3 0-2.6 1.1-2.6 2.6s1.1 2.6 2.6 2.6c.5 0 1.3-.2 1.5-.5.5.2 1.1.5 1.5.5 1.3 0 2.6-1.1 2.6-2.6s-1.3-2.6-2.6-2.6zm21.9 2.6c0-1.3-1.1-2.6-2.6-2.6 0-1.3-1.1-2.6-2.6-2.6s-2.6 1.1-2.6 2.6 1.1 2.6 2.6 2.6c0 1.3 1.1 2.6 2.6 2.6 0 1.3 1.1 2.6 2.6 2.6s2.6-1.1 2.6-2.6c-.2-1.7-1.3-2.6-2.6-2.6zm-70.3-7.3c1.3 0 2.6-1.1 2.6-2.6s-1.1-2.6-2.6-2.6-2.6 1.1-2.6 2.6 1.3 2.6 2.6 2.6zm9.5-9.5c1.3 0 2.6-1.1 2.6-2.6s-1.1-2.6-2.6-2.6-2.6 1.1-2.6 2.6 1.3 2.6 2.6 2.6zm19.6 0c1.3 0 2.6-1.1 2.6-2.6s-1.1-2.6-2.6-2.6-2.6 1.1-2.6 2.6 1 2.6 2.6 2.6zm38.6 0c1.3 0 2.6-1.1 2.6-2.6s-1.1-2.6-2.6-2.6-2.6 1.1-2.6 2.6 1.4 2.6 2.6 2.6zm-67.7-9.8c1.3 0 2.6-1.1 2.6-2.6 0-1.3-1.1-2.6-2.6-2.6s-2.6 1.1-2.6 2.6 1.3 2.6 2.6 2.6zm77.6 0c1.3 0 2.6-1.1 2.6-2.6 0-1.3-1.1-2.6-2.6-2.6s-2.6 1.1-2.6 2.6 1 2.6 2.6 2.6zm-9.9-9.8c1.3 0 2.6-1.1 2.6-2.6 0-1.3-1.1-2.6-2.6-2.6s-2.6 1.1-2.6 2.6c.1 1.6 1.4 2.6 2.6 2.6zM513.1 732c-1.3 0-2.6 1.1-2.6 2.6s1.1 2.6 2.6 2.6c.5 0 1.3-.2 1.5-.5.5.2 1.1.5 1.5.5v4.6c-1.3 0-2.3 1.1-2.3 2.6 0 1.3 1.1 2.3 2.3 2.6v4.6c-1.3 0-2.3 1.1-2.3 2.6s1.1 2.3 2.3 2.6v4.6c-1.3 0-2.3 1.1-2.3 2.6 0 1.3 1.1 2.3 2.3 2.6v4.6c-.5 0-1.1.2-1.5.5-.5-.2-1.1-.5-1.5-.5-.5 0-1.3.2-1.5.5-.5-.2-1.1-.5-1.5-.5s-1.3.2-1.5.5c-.5-.2-1.1-.5-1.5-.5-1.3 0-2.6 1.1-2.6 2.6s1.1 2.6 2.6 2.6c.5 0 1.3-.2 1.5-.5.5.2 1.1.5 1.5.5s1.3-.2 1.5-.5c.5.2 1.1.5 1.5.5.5 0 1.3-.2 1.5-.5.5.2 1.1.5 1.5.5v4.6c-1.3 0-2.3 1.1-2.3 2.6 0 1.3 1.1 2.3 2.3 2.6v4.6c-1.3 0-2.3 1.1-2.3 2.6 0 1.3 1.1 2.3 2.3 2.6v1.1c0 1.3-1.1 2.3-2.3 2.3h-14.4v-.2c0-.5-.2-1.3-.5-1.5.2-.5.5-1.1.5-1.5s-.2-1.3-.5-1.5c.2-.5.5-1.1.5-1.5s-.2-1.3-.5-1.5c.2-.5.5-1.1.5-1.5 0-1.3-1.1-2.6-2.6-2.6s-2.6 1.1-2.6 2.6c0 .5.2 1.3.5 1.5-.2.5-.5 1.1-.5 1.5s.2 1.3.5 1.5c-.2.5-.5 1.1-.5 1.5s.2 1.3.5 1.5c-.2.5-.5 1.1-.5 1.5v.2h-2.6c-1.3 0-2.3-1.1-2.3-2.3V737c.2 0 .5.2.7.2 1.3 0 2.6-1.1 2.6-2.6s-1.1-2.6-2.6-2.6c-.2 0-.5 0-.7.2v-39.9c0-1.3 1.1-2.3 2.3-2.3h17.5c.5 0 1.3.2 1.8.5 0 0 1.3 1.3 3.6 3.3-.5.5-1.1 1.1-1.1 1.8 0 1.3 1.1 2.6 2.6 2.6.7 0 1.5-.5 2-1.1 10.3 10 29.1 28.1 36.1 34.8-1.1.2-1.8 1.3-1.8 2.3 0 1.3 1.1 2.6 2.6 2.6s2.6-1.1 2.6-2.6c0-1.3-1.1-2.3-2.3-2.3V729c.5.7 1.3 1.5 2.3 1.5 1.3 0 2.6-1.1 2.6-2.6s-1.1-2.6-2.6-2.6c0-1.3-1.1-2.3-2.3-2.3v-30.2c0-1.3 1.1-2.3 2.3-2.3h22.2c1.3 0 2.3 1.1 2.3 2.3v57h-.5c0-1.3-1.1-2.6-2.6-2.6 0-1.3-1.1-2.6-2.6-2.6 0-1.3-1.1-2.6-2.6-2.6s-2.6 1.1-2.6 2.6 1.1 2.6 2.6 2.6c0 1.3 1.1 2.6 2.6 2.6 0 1.3 1.1 2.6 2.6 2.6 0 1.3 1.1 2.6 2.6 2.6 0 .5.2 1.1.5 1.3v41.2c0 1.3-1.1 2.3-2.3 2.3h-22.2c-1.3 0-2.3-1.1-2.3-2.3v-11.6c1.3-.2 2.3-1.1 2.3-2.3 0-1.2-1.1-2.3-2.3-2.3v-4.9c.5 0 1.1-.2 1.3-.5.5.2 1.1.5 1.5.5 1.3 0 2.6-1.1 2.6-2.6s-1.1-2.6-2.6-2.6c-.5 0-1.3.2-1.5.5-.5-.2-1.1-.5-1.5-.5-.5-2.3-2-4.6-3.8-6.4l-3.3-3.3s-13.7-12.6-26.8-24.4c.5.2 1.1.5 1.5.5s1.3-.2 1.5-.5c.5.2 1.1.5 1.5.5s1.3-.2 1.5-.5c.5.2 1.1.5 1.5.5s1.3-.2 1.5-.5c.5.2 1.1.5 1.5.5 1.3 0 2.6-1.1 2.6-2.6s-1.1-2.6-2.6-2.6c-.5 0-1.3.2-1.5.5-.5-.2-1.1-.5-1.5-.5s-1.3.2-1.5.5c-.5-.2-1.1-.5-1.5-.5s-1.3.2-1.5.5c-.5-.2-1.1-.5-1.5-.5s-1.3.2-1.5.5c-.5-.2-1.1-.5-1.5-.5s-1.3.2-1.5.5c-.5-.2-1.1-.5-1.5-.5s-1.3.2-1.5.5c-.9-.7-1.5-.9-2-.9z"/></svg>
